<?xml version="1.0" standalone="no"?>
<!DOCTYPE svg PUBLIC "-//W3C//DTD SVG 1.1//EN" "http://www.w3.org/Graphics/SVG/1.1/DTD/svg11.dtd" >
<svg xmlns="http://www.w3.org/2000/svg">
<metadata></metadata>
<defs>
<font id="nexa_slabregular_italic" horiz-adv-x="1433" >
<font-face units-per-em="2048" ascent="1434" descent="-614" />
<missing-glyph horiz-adv-x="516" />
<glyph horiz-adv-x="2048" />
<glyph horiz-adv-x="2048" />
<glyph horiz-adv-x="682" />
<glyph unicode="&#xd;" horiz-adv-x="548" />
<glyph unicode=" "  horiz-adv-x="516" />
<glyph unicode="&#x09;" horiz-adv-x="516" />
<glyph unicode="&#xa0;" horiz-adv-x="516" />
<glyph unicode="!" horiz-adv-x="571" d="M80 86q0 64 42 98.5t97 34.5q43 0 71.5 -23.5t28.5 -70.5q0 -61 -41 -97t-96 -36q-43 0 -72.5 23.5t-29.5 70.5zM150 340l192 1094h178l-192 -1094h-178z" />
<glyph unicode="&#x22;" horiz-adv-x="763" d="M197 901l94 535h151l-94 -535h-151zM518 901l94 535h152l-94 -535h-152z" />
<glyph unicode="#" horiz-adv-x="1351" d="M23 317l26 154h199l211 485h-172l26 150h207l137 328h168l-137 -328h342l139 328h168l-139 -328h168l-27 -150h-204l-211 -485h180l-27 -154h-215l-133 -317h-168l133 317h-344l-133 -317h-166l133 317h-161zM412 463h344l215 502h-342z" />
<glyph unicode="$" horiz-adv-x="1312" d="M29 166l51 285h162l-29 -201q64 -53 160 -82t194 -29q58 0 112.5 6.5t114 24t106 45.5t81 75.5t45.5 108.5q9 46 -1.5 83.5t-48 64t-63.5 43.5t-90 32t-82.5 19t-83.5 14q-2 1 -3.5 1t-3 0.5t-3.5 0.5q-92 15 -156.5 30.5t-134 46.5t-108.5 72t-58 107.5t-4 151.5 q13 79 52.5 144.5t93.5 109t123.5 75t139.5 47t144 19.5l35 191h166l-35 -195q228 -19 375 -158q-9 -52 -26.5 -142t-26.5 -142h-158l29 207q-61 42 -149 63t-177 21q-77 0 -148.5 -16.5t-132 -48.5t-97 -86t-36.5 -122q0 -40 18.5 -71.5t46.5 -52.5t75.5 -38t91 -27.5 t106.5 -21.5q105 -17 170 -31t146 -45t122.5 -72.5t63.5 -111.5t6 -162q-18 -101 -73 -180t-134.5 -127.5t-167.5 -76.5t-186 -38l-35 -190h-164l33 186q-279 12 -448 193z" />
<glyph unicode="%" horiz-adv-x="1517" d="M90 0l1180 1438h188l-1177 -1438h-191zM172 1167q34 130 140 210q99 75 231 75q166 0 236 -114q58 -96 25 -224q-33 -130 -140 -210q-100 -75 -232 -75q-165 0 -234 114q-59 96 -26 224zM306 1083q13 -81 88 -108q30 -10 65 -10q108 0 169 85q52 72 40 152 q-13 81 -87 107q-28 10 -63 10h-2q-108 0 -171 -85q-51 -71 -39 -151zM754 324q34 130 140 209q100 75 232 75h-2q166 0 236 -114q59 -96 26 -224q-34 -129 -140 -209q-100 -75 -232 -75q-166 0 -235 114q-58 96 -25 224zM889 239q12 -83 86 -110q28 -10 63 -10 q108 0 171 86q53 71 42 152q-12 83 -86 110q-28 10 -63 10q-108 0 -171 -86q-53 -71 -42 -152z" />
<glyph unicode="&#x26;" horiz-adv-x="1413" d="M70 332q0 143 94.5 250.5t228.5 150.5q-83 27 -131.5 101.5t-48.5 164.5q0 136 82.5 240t217.5 156.5t300 52.5q77 0 141.5 -10t125 -36.5t99.5 -67.5t55 -108.5t1 -154.5h-166v4q4 67 -15 112t-61 68.5t-92 33t-119 9.5q-190 0 -291.5 -83t-101.5 -197q0 -58 29.5 -101 t77.5 -66t99.5 -33.5t104.5 -10.5h637l-26 -145h-127l-47 -267q-10 -63 -7.5 -116t33 -86.5t88.5 -32.5l-28 -162q-93 -6 -154 36.5t-70 141.5q-61 -77 -141 -122t-150.5 -58.5t-156.5 -13.5q-230 0 -355.5 86.5t-125.5 263.5zM250 371q0 -109 85.5 -169.5t237.5 -60.5 q43 0 90 7.5t99.5 27t95.5 47.5t76 74t43 102l47 265h-362q-95 0 -175 -26t-130.5 -68.5t-78.5 -94t-28 -104.5z" />
<glyph unicode="'" horiz-adv-x="444" d="M197 901l94 537h153l-94 -537h-153z" />
<glyph unicode="(" horiz-adv-x="694" d="M72 420q0 209 74 410.5t221 378t350 296.5l65 -119q-205 -134 -338.5 -341.5t-175.5 -442.5q-44 -242 15 -448.5t221 -346.5l-113 -126q-157 115 -238 314t-81 425z" />
<glyph unicode=")" horiz-adv-x="692" d="M-90 -190q258 171 393 420.5t135 527.5q0 190 -64.5 359t-187.5 274l107 118q159 -118 241 -317t82 -424q0 -205 -73 -406t-219.5 -379.5t-348.5 -297.5z" />
<glyph unicode="*" horiz-adv-x="747" d="M203 1206l59 127l164 -61l25 178h133l-43 -180l196 61l15 -125l-193 -43l100 -151l-118 -78l-88 162l-140 -162l-96 78l152 151z" />
<glyph unicode="+" horiz-adv-x="1001" d="M88 627l29 157h332l57 330h164l-58 -330h336l-28 -157h-336l-60 -338h-164l60 338h-332z" />
<glyph unicode="," horiz-adv-x="466" d="M6 -190l84 184l2 4q-26 6 -41.5 26t-15.5 50q0 70 55.5 103t111.5 10.5t56 -85.5q0 -15 -18 -54t-58.5 -116t-62.5 -122h-113z" />
<glyph unicode="-" horiz-adv-x="1007" d="M121 508l26 160h734l-27 -160h-733z" />
<glyph unicode="." horiz-adv-x="466" d="M35 74q0 60 41 93.5t92 33.5q39 0 65.5 -24t26.5 -66q0 -58 -39.5 -93.5t-87.5 -35.5q-41 0 -69.5 23.5t-28.5 68.5z" />
<glyph unicode="/" horiz-adv-x="1017" d="M-80 -168l1032 1729h176l-1034 -1729h-174z" />
<glyph unicode="0" d="M125 382q-10 91 8 196l49 280q49 277 252 443q166 135 377 153q201 17 348 -81q163 -109 188 -319q10 -91 -8 -196l-49 -280q-48 -276 -251 -442q-166 -136 -376 -154q-202 -18 -349 80q-164 109 -189 320zM313 575q-38 -214 79 -333q92 -94 243 -94q156 1 285 101 q153 120 190 329l49 280q37 212 -80 331q-93 94 -243 94q-157 1 -285 -99q-152 -118 -189 -326l-49 -280v-3z" />
<glyph unicode="1" d="M168 0l27 154h374l187 1056l-359 -84l29 164l549 144l-225 -1280h397l-27 -154h-952z" />
<glyph unicode="2" d="M47 0l62 346q17 93 62.5 166t107.5 119t142.5 75.5t160 41.5t166.5 12q55 0 108.5 8t111 29.5t100.5 54.5t71 88.5t28 126.5q0 62 -25.5 107.5t-70.5 71t-99 37t-120 11.5q-385 0 -434 -258h-178q20 94 65.5 166.5t105.5 119t138.5 76.5t159 42t172.5 12q94 0 175 -19.5 t148 -60t105.5 -112t38.5 -166.5q0 -109 -36 -196t-95.5 -143t-141.5 -93.5t-169.5 -53.5t-184.5 -16q-70 0 -133.5 -10.5t-129 -35.5t-111 -76.5t-58.5 -123.5l-33 -180h766l45 207h162l-66 -373h-1116z" />
<glyph unicode="3" d="M115 391h178q-11 -62 7.5 -108t52.5 -71.5t86.5 -41.5t98.5 -20.5t99 -4.5q193 0 314.5 91.5t121.5 246.5q0 69 -25.5 118t-69 73.5t-100 39t-118.5 14t-125 -0.5l-14 49l454 496l-583 -2l-43 -209h-164l65 373h1022l-12 -76l-475 -494q173 -18 270.5 -105.5t97.5 -250.5 q0 -122 -50.5 -222.5t-139 -166.5t-206.5 -101.5t-253 -35.5q-82 0 -155.5 11.5t-143.5 41t-117 74.5t-68 117.5t-5 164.5z" />
<glyph unicode="4" d="M63 301l11 197l913 936h285l-170 -961h174l-31 -172h-174l-53 -301h-180l53 301h-828zM272 473h650l141 809z" />
<glyph unicode="5" d="M131 412h182q-11 -60 5.5 -106t50 -73t83 -44t98 -23t103.5 -6q194 0 315.5 90t121.5 244q0 109 -80.5 173t-235.5 64h-555l123 703h1016l-31 -170h-840l-63 -365h379l2 2q259 0 379.5 -121t81.5 -329q-35 -208 -210 -335.5t-429 -127.5q-90 0 -167 12.5t-146 43 t-114.5 78t-65 121.5t-3.5 169z" />
<glyph unicode="6" d="M135 440l103 586q18 106 81 190t153 135.5t194 78t213 26.5q114 0 208.5 -23.5t165 -70t103.5 -122.5t20 -173h-184q14 109 -84 170t-256 61q-100 0 -192 -30t-160.5 -94t-83.5 -150l-54 -307v-6q82 95 197 137.5t240 42.5q78 0 149 -13t135.5 -42.5t111.5 -73t75 -109.5 t28 -147q0 -107 -39.5 -197t-105 -150t-152.5 -102t-179 -61t-187 -19q-87 0 -166.5 16.5t-148 53.5t-115.5 90t-67 131t-3 172zM309 391q0 -65 30 -114.5t81 -78.5t112 -43t130 -14v2q82 0 158.5 18t144 55.5t108.5 104.5t41 154q0 82 -50 141.5t-127 87t-169 27.5 q-82 0 -162 -21t-147 -61.5t-108.5 -107.5t-41.5 -150z" />
<glyph unicode="7" d="M270 0l904 1270h-678l-43 -209h-160l65 373h1049l-4 -111l-932 -1323h-201z" />
<glyph unicode="8" d="M76 401l4 5q21 117 114.5 209t221.5 126q-93 37 -145 105.5t-52 159.5q0 92 38.5 169.5t102.5 129.5t148.5 88t175.5 52.5t184 16.5q78 0 150 -12.5t138 -40t115 -68t78 -101t29 -134.5q0 -130 -87.5 -224t-229.5 -139q100 -31 162.5 -114.5t62.5 -186.5 q0 -99 -41.5 -180.5t-109 -135t-158 -90t-185 -52t-192.5 -15.5q-89 0 -170 13.5t-154.5 46t-123 81t-71.5 123.5t-5 168zM264 379q0 -76 57 -131.5t139.5 -80t174.5 -24.5q80 0 160 18t150 52.5t113.5 92.5t43.5 130q0 61 -35 108t-91.5 74t-119.5 40.5t-127 13.5v4 q-73 0 -149.5 -16.5t-149.5 -49.5t-119.5 -93t-46.5 -138zM408 1030q0 -56 32 -99.5t84 -68t110.5 -37t119.5 -12.5q67 0 134.5 14t131.5 41.5t109 76.5t57 112q13 64 -13.5 115t-79 81t-117 45t-134.5 15q-77 0 -152 -18t-139 -51.5t-103.5 -89.5t-39.5 -124z" />
<glyph unicode="9" d="M94 371h182q-14 -109 85 -170.5t257 -61.5q100 0 192 30.5t161 94.5t84 150l53 307v6q-82 -94 -196.5 -137t-237.5 -43q-78 0 -149 13t-135.5 42.5t-112 73t-75.5 109.5t-28 147q0 107 39.5 196.5t105.5 150t153 102t179 60.5t187 19q87 0 166 -16.5t148 -53.5t115.5 -90 t66.5 -131t3 -172l-102 -585q-18 -106 -81 -190t-153 -135.5t-194 -78t-213 -26.5q-114 0 -209 23.5t-166 70t-104.5 122.5t-20.5 173zM354 961q0 -85 50.5 -144t126.5 -84.5t169 -25.5q82 0 162 21t147 61.5t108.5 107.5t41.5 150q0 65 -29.5 114.5t-80.5 78t-111.5 42.5 t-128.5 14l-2 -2q-82 0 -158.5 -18t-144.5 -55.5t-109 -104.5t-41 -155z" />
<glyph unicode=":" horiz-adv-x="497" d="M47 80q0 60 42 93.5t93 33.5q39 0 64.5 -23.5t25.5 -66.5q0 -58 -39.5 -93.5t-87.5 -35.5q-41 0 -69.5 23.5t-28.5 68.5zM154 680q0 60 41 93.5t92 33.5q39 0 65.5 -24t26.5 -66q0 -58 -39.5 -93.5t-87.5 -35.5q-41 0 -69.5 23.5t-28.5 68.5z" />
<glyph unicode=";" horiz-adv-x="499" d="M20 -190l84 186h2q-26 6 -41.5 26t-15.5 50q0 76 64 108q55 28 107 5q52 -24 52 -83q0 -15 -17.5 -52.5t-60.5 -118.5t-63 -121h-111zM156 680q0 60 42 93.5t93 33.5q39 0 64.5 -23.5t25.5 -66.5q0 -58 -39.5 -93.5t-87.5 -35.5q-41 0 -69.5 23.5t-28.5 68.5z" />
<glyph unicode="&#x3c;" horiz-adv-x="755" d="M94 618l10 58l523 420l86 -115l-420 -334l307 -338l-131 -110z" />
<glyph unicode="=" horiz-adv-x="1140" d="M100 348l29 158h848l-29 -158h-848zM176 780l29 158h848l-29 -158h-848z" />
<glyph unicode="&#x3e;" horiz-adv-x="755" d="M51 309l426 338l-303 338l127 111l377 -420l-10 -58l-527 -419z" />
<glyph unicode="?" horiz-adv-x="1245" d="M143 1024q19 111 80.5 195.5t149.5 133.5t186.5 73t204.5 24q77 0 145.5 -11.5t131 -38t107 -66.5t71 -101t26.5 -137q0 -63 -12.5 -117t-30.5 -92.5t-49 -72.5t-57.5 -55t-68 -43t-68 -33t-69 -27.5t-61.5 -24.5q-113 -40 -154.5 -93.5t-66.5 -191.5h-178 q17 102 45.5 172.5t73.5 118t98 77.5t133 56q35 13 46.5 17.5t44 18t45 21.5t38.5 24t38 29.5t29 35t24.5 43.5t13.5 51t6 61q0 53 -21 93.5t-53.5 64t-79 38.5t-90.5 20t-94 5q-65 0 -128.5 -14.5t-123.5 -44.5t-103.5 -84t-56.5 -125h-172zM362 88q0 64 42.5 98.5 t97.5 34.5q43 0 71.5 -23.5t28.5 -70.5q0 -61 -41 -97t-96 -36q-43 0 -73 23.5t-30 70.5z" />
<glyph unicode="@" horiz-adv-x="1873" d="M82 434q0 203 79.5 380t214 300t315 193.5t378.5 70.5q323 0 511.5 -171t188.5 -480q0 -189 -68 -346t-188 -242q-52 -37 -108.5 -49t-99.5 1t-66 54.5t-10 104.5q-67 -91 -184 -144t-222 -53q-192 0 -314 122.5t-122 309.5q0 131 50.5 242.5t135 186.5t196.5 117t235 42 q107 0 196.5 -52.5t122.5 -141.5l33 143l133 -12l-129 -736q-6 -33 11 -48t43.5 -8t47.5 30q75 67 119.5 201t44.5 272q0 259 -151.5 389.5t-430.5 130.5q-104 0 -205 -26t-190 -73.5t-164.5 -118.5t-129.5 -156.5t-84.5 -191.5t-30.5 -220q0 -251 157.5 -392t409.5 -141 q159 0 319 80l48 -121q-184 -102 -396 -102q-205 0 -362 77t-245.5 226.5t-88.5 351.5zM549 498q0 -137 81 -215t220 -78q129 0 228.5 62.5t148.5 157.5t49 202q0 127 -75.5 212t-221.5 85q-186 0 -308 -117.5t-122 -308.5z" />
<glyph unicode="A" horiz-adv-x="1667" d="M-76 0l29 164h139l699 1108h-166l28 162h443l338 -1270h145l-29 -164h-508l29 164h178q-11 39 -22.5 83t-23.5 94.5t-19 76.5h-735q-15 -25 -71 -113.5t-87 -140.5h174l-29 -164h-512zM547 578h594q-90 355 -176 682q-102 -165 -248 -404t-170 -278z" />
<glyph unicode="B" horiz-adv-x="1511" d="M-2 0l29 164h178l194 1108h-174l29 162h768q92 0 166.5 -19t131.5 -57.5t88.5 -103t31.5 -150.5q0 -130 -72 -226t-203 -143q69 -19 117.5 -67t69 -105t20.5 -119q0 -444 -602 -444h-772zM381 164h418q55 0 104 6t103.5 23.5t93.5 46.5t64.5 79.5t25.5 116.5 q0 73 -46 124.5t-111 73t-140 21.5h-426zM496 817h426q146 0 243 68.5t97 189.5q0 197 -269 197h-418z" />
<glyph unicode="C" d="M108 588q1 70 13 141q19 115 63.5 220.5t120 198.5t174.5 161t232.5 107.5t287.5 39.5q125 0 238.5 -42.5t200.5 -123.5q-9 -50 -29 -151.5t-29 -151.5h-159l32 221q-112 78 -282 78q-120 0 -223 -29.5t-178 -80.5t-131.5 -122t-90.5 -151.5t-49 -171.5q-11 -57 -11 -112 q0 -16 1 -32q4 -71 19.5 -136t54 -120t92 -95t134.5 -63t181 -23q109 0 224.5 42.5t207.5 120.5l105 -120q-125 -105 -272 -159t-296 -54q-93 0 -174.5 16.5t-145 47t-115.5 73t-88.5 95t-61.5 112.5q-25 62 -36 128q-10 61 -10 124v12z" />
<glyph unicode="D" horiz-adv-x="1611" d="M0 0l29 164h178l196 1110h-174l29 162h672q153 0 271.5 -45.5t191.5 -125.5t110 -183.5t37 -225.5q0 -107 -22 -209t-65.5 -198.5t-115.5 -177.5t-165 -142t-220 -95t-276 -34h-676zM387 164h318q127 0 235.5 40t184 106t129 152t79 178t25.5 183q0 74 -13 137.5t-46 122 t-84 99.5t-131.5 65.5t-184.5 24.5h-317z" />
<glyph unicode="E" horiz-adv-x="1406" d="M-2 0l29 164h178l194 1108h-174l29 162h1167l-65 -381h-160l31 217h-652l-79 -457h653l-29 -166h-653l-86 -479h682l45 219h160l-68 -387h-1202z" />
<glyph unicode="F" horiz-adv-x="1300" d="M-2 0l29 164h178l194 1108h-176l29 162h1122q-12 -66 -33 -193t-32 -188h-160l33 221h-602l-84 -467h614l-29 -166h-614l-84 -477h195l-29 -164h-551z" />
<glyph unicode="G" horiz-adv-x="1507" d="M109 580q0 144 41 276.5t119 241t185 189t246.5 125t296.5 44.5q298 0 476 -170q-10 -57 -31 -163t-27 -136h-160l35 221q-122 82 -321 82q-126 0 -236 -37.5t-190.5 -102.5t-138 -151t-86.5 -185.5t-29 -203.5q0 -78 14.5 -144t49 -127t88.5 -103.5t137.5 -67.5 t191.5 -25q219 0 397 146l52 297h-447l29 153h604l-92 -530q-231 -234 -574 -234q-160 0 -283 48t-197.5 132t-112 191.5t-37.5 233.5z" />
<glyph unicode="H" horiz-adv-x="1710" d="M0 0l29 164h178l194 1106h-178l29 164h524l-28 -164h-170l-80 -457h790l80 457h-170l29 164h524l-29 -164h-176l-194 -1106h176l-29 -164h-524l29 164h170l88 493h-791l-88 -493h170l-29 -164h-524z" />
<glyph unicode="I" horiz-adv-x="751" d="M-2 0l29 164h182l194 1106h-178l29 164h537l-29 -164h-180l-195 -1106h184l-28 -164h-545z" />
<glyph unicode="J" horiz-adv-x="1384" d="M37 565h172q-11 -62 -11 -115q0 -119 54 -196q79 -111 274 -111q191 0 320 115.5t164 314.5l127 697h-482l29 164h653l-151 -861q-44 -276 -222 -437t-460 -161q-258 0 -386 160q-94 117 -94 293q0 64 13 137z" />
<glyph unicode="K" horiz-adv-x="1468" d="M-2 0l29 162h178l194 1108h-178l29 164h508l-29 -164h-154l-96 -547l658 547h-174l28 164h561l-28 -164h-142l-591 -490l346 -618h225l-29 -162h-422l25 147l-279 523l-217 -172l-59 -336h223l-29 -162h-577z" />
<glyph unicode="L" horiz-adv-x="1290" d="M4 0l29 162h170l194 1108h-178l29 164h526l-29 -164h-170l-194 -1106h614l45 221h160l-67 -385h-1129z" />
<glyph unicode="M" horiz-adv-x="1998" d="M-4 0l29 162h182l194 1108h-180l29 164h381l387 -738l627 738h395l-29 -164h-178l-195 -1108h179l-29 -162h-526l28 162h172l178 1014l-634 -725h-39l-402 731l-180 -1020h170l-29 -162h-530z" />
<glyph unicode="N" horiz-adv-x="1726" d="M4 0l29 162h172l194 1108h-178l29 164h305l680 -1110l170 946h-178l28 164h527l-29 -164h-172l-223 -1270h-123l-688 1114l-164 -952h178l-29 -162h-528z" />
<glyph unicode="O" horiz-adv-x="1658" d="M109 588q0 116 28.5 227t81.5 207t131 176.5t173.5 138t214 89.5t247.5 32q118 0 217 -29t168 -80t120 -121.5t74 -153t29 -174.5q1 -21 1 -43q0 -71 -15 -144q-21 -116 -64.5 -221.5t-116.5 -201.5t-168 -166t-226 -111.5t-283 -41.5q-124 0 -226 33.5t-173 91 t-119.5 136.5t-71 168.5t-22.5 187.5zM289 612q0 -76 15.5 -144t51 -129t88 -104.5t131.5 -69.5t177 -26q136 0 252.5 49.5t195.5 132t130 183t71 209.5q13 60 13 118v26q-4 71 -18 135t-51 119t-88 95.5t-128.5 63.5t-172.5 24q-150 0 -278 -57.5t-211.5 -153t-130.5 -218 t-47 -253.5z" />
<glyph unicode="P" horiz-adv-x="1478" d="M4 0l29 162h172l194 1108h-178l29 164h813q82 0 150.5 -19.5t115.5 -53.5t82.5 -81t50.5 -101q16 -53 22 -113q2 -19 1 -38q0 -41 -8 -82q-15 -89 -58 -167.5t-112.5 -143t-175 -102t-232.5 -37.5h-459l-59 -334h180l-29 -162h-528zM467 653h459q158 0 261.5 98.5 t117.5 233.5q2 19 2 37q0 94 -58 164q-69 84 -215 84h-459z" />
<glyph unicode="Q" horiz-adv-x="1652" d="M113 643q9 162 73 309.5t171.5 261t266.5 181t345 67.5q155 0 276 -49t195 -135t112.5 -193.5t40.5 -232.5v-15q0 -155 -59 -304q-61 -156 -180 -287l149 -172l-145 -125l-150 172v2q-201 -139 -473 -139q-167 0 -294 53t-200 145t-105 209q-25 89 -25 189q0 31 2 63z M289 623q0 -95 28 -179t83 -150.5t145 -105t205 -38.5q151 0 278.5 59t209.5 155t127.5 216t45.5 245q0 96 -26 178.5t-79.5 148.5t-143.5 104t-208 38q-145 -1 -271.5 -58t-211.5 -150t-133.5 -213.5t-48.5 -249.5z" />
<glyph unicode="R" horiz-adv-x="1540" d="M0 0l29 166h176l194 1104h-178l29 164h792q207 0 324 -106q105 -96 105 -266q0 -19 -1 -38q-15 -206 -153.5 -325.5t-368.5 -127.5l250 -405h205l-29 -166h-401l28 162l-241 405h-305l-72 -401h213l-29 -166h-567zM481 721h443q310 0 362 272q5 33 5 62q0 96 -56 148 q-73 67 -221 67h-436z" />
<glyph unicode="S" horiz-adv-x="1345" d="M45 166l51 285h162l-29 -209q63 -51 158 -77t197 -26q58 0 112 6.5t114 24t106 45.5t80.5 75.5t45.5 108.5q4 21 4 41q0 22 -6 42q-10 38 -47.5 64.5t-63 43.5t-89.5 32t-82.5 19t-83.5 14q-3 1 -5.5 1.5t-4.5 0.5q-81 13 -144.5 29t-127.5 44t-105.5 65t-66.5 93 q-23 52 -23 118v10q0 90 34 164.5t92 126t137 87t168 52t185 16.5q153 0 270.5 -37t212.5 -127q-9 -52 -26.5 -142t-26.5 -142h-158l29 207q-61 42 -149 63t-177 21q-104 0 -195 -27.5t-154.5 -91.5t-63.5 -154q0 -31 10 -57t24 -44.5t42.5 -34.5t50.5 -25.5t64.5 -20 t68.5 -15.5t78 -14q99 -16 169.5 -32.5t147.5 -50.5t120.5 -79.5t65.5 -118.5q12 -42 12 -91q0 -36 -7 -76q-16 -93 -65 -165t-114 -116t-150.5 -72t-168 -38.5t-172.5 -10.5q-161 0 -284.5 45.5t-221.5 149.5z" />
<glyph unicode="T" horiz-adv-x="1308" d="M141 1053l68 381h1184l-68 -381h-158l31 221h-338l-196 -1110h184l-29 -164h-547l29 164h186l197 1110h-340l-45 -221h-158z" />
<glyph unicode="U" horiz-adv-x="1662" d="M195 1270l28 164h531l-29 -164h-186l-123 -699q-9 -54 -9 -101.5t9 -87.5q18 -81 66 -135.5t117 -82t153 -27.5q113 0 213 49t174 149.5t98 237.5l123 697h-186l28 164h531l-29 -164h-170l-123 -699q-34 -193 -133.5 -330t-238.5 -202.5t-308 -65.5q-117 0 -216 38 t-171 110q-70 73 -100 189q-16 62 -16 131q0 62 12 130l122 699h-167z" />
<glyph unicode="V" horiz-adv-x="1599" d="M135 1270l29 164h514l-29 -164h-170l234 -1061l604 1061h-170l29 164h536l-29 -164h-153l-746 -1274h-198l-301 1274h-150z" />
<glyph unicode="W" horiz-adv-x="2357" d="M137 1270l29 164h520l-29 -164h-168l162 -1024l602 1159h115l197 -1159l512 1024h-170l28 164h531l-29 -164h-149l-668 -1272h-184l-193 1038l-282 -563l-252 -475h-199l-221 1272h-152z" />
<glyph unicode="X" horiz-adv-x="1423" d="M-72 0l29 162h160l520 573l-285 535h-180l29 164h368l-34 -148l221 -418l356 402h-184l28 164h545l-28 -164h-154l-488 -543l299 -565h193l-29 -162h-383l35 150l-233 442l-389 -430h186l-35 -162h-547z" />
<glyph unicode="Y" horiz-adv-x="1454" d="M147 1270l29 164h522l-28 -164h-170l235 -518l256 309l183 209h-164l28 164h523l-29 -164h-146l-581 -688l-74 -420h184l-28 -162h-549l29 162h184l74 420l-332 688h-146z" />
<glyph unicode="Z" horiz-adv-x="1261" d="M-29 0l17 94l999 1174h-569l-41 -209h-166l65 375h1004l-12 -78l-1012 -1186h668l47 233h162l-72 -403h-1090z" />
<glyph unicode="[" horiz-adv-x="688" d="M20 -352l320 1810h426l-27 -153h-254l-266 -1502h254l-27 -155h-426z" />
<glyph unicode="\" horiz-adv-x="987" d="M211 1561h176l422 -1729h-176z" />
<glyph unicode="]" horiz-adv-x="690" d="M-94 -350l26 155h254l267 1502h-254l26 153h426l-319 -1810h-426z" />
<glyph unicode="^" horiz-adv-x="1218" d="M117 735v10l579 691h127l340 -691l-4 -10h-182l-250 525l-434 -525h-176z" />
<glyph unicode="_" horiz-adv-x="1236" d="M-2 -182l27 149h962l-26 -149h-963z" />
<glyph unicode="`" horiz-adv-x="481" d="M279 1427v7h204l109 -260l-2 -11h-154z" />
<glyph unicode="a" horiz-adv-x="1196" d="M62.5 423q42.5 71 112.5 110t157 60q85 21 176 20q2 1 4 1q93 0 178 -13.5t154 -37.5l16 88q5 27 5 50q1 33 -9 61q-16 46 -54 71.5t-85.5 37t-108.5 12.5q-108 0 -237 -37l-29 -133h-147l36 235q165 82 392 82q96 0 172.5 -19.5t136.5 -62t84 -118.5q14 -43 15 -95 q0 -40 -9 -86l-70 -399q-5 -29 -5 -51q-1 -27 7 -41q14 -26 48 -23t83 13q14 3 21 4l-27 -152q-41 -6 -71 -8q-22 -2 -47 -2h-21q-38 1 -64 11t-48.5 27.5t-31.5 49.5q-6 22 -6 51q0 13 1 27q-152 -172 -406 -172q-159 0 -263 71q-103 70 -102 200q0 97 42.5 168zM193 268 q3 -37 25.5 -65t58 -43t74.5 -22t83 -7q134 0 249 84t144 213q-49 28 -129 46q-78 17 -165 17q-3 -1 -5 -1q-88 0 -166 -19.5t-126 -71.5q-43 -47 -43 -116v-15z" />
<glyph unicode="b" horiz-adv-x="1316" d="M51 0q109 600 228 1286h-168l26 148h336l-106 -603q65 97 181 148t232 51q194 0 312 -111t118 -313q0 -191 -82 -333.5t-221 -215.5t-315 -73q-116 0 -211.5 51.5t-130.5 144.5l-39 -180h-160zM309 440q0 -137 84 -218t219 -81q111 0 207 50.5t157.5 151t61.5 230.5 q0 146 -78 225t-223 79q-110 0 -208 -57t-159 -158.5t-61 -221.5z" />
<glyph unicode="c" horiz-adv-x="1095" d="M72 420q0 149 54 268t144.5 192t202.5 111.5t236 38.5q182 0 338 -94l-56 -260h-147l28 168q-66 35 -188 35q-192 -2 -317 -121.5t-125 -311.5q0 -147 81 -225t240 -78q76 0 153.5 27.5t137.5 81.5l94 -119q-171 -149 -416 -149q-200 0 -330 116.5t-130 319.5z" />
<glyph unicode="d" horiz-adv-x="1372" d="M72 412q0 144 50 262.5t135.5 195.5t196 118.5t232.5 41.5q116 0 213.5 -52t130.5 -149l78 457h-164l27 148h334l-207 -1174q-6 -31 -6 -53.5t2.5 -37.5t13.5 -22.5t21 -11t32 -1t38.5 5.5t47.5 10l-24 -150q-55 -10 -98 -14q-14 -1 -29 -1q-30 0 -58 5q-44 7 -70 27 t-39 61q-8 25 -8 58q0 20 3 44q-76 -98 -188 -147t-234 -49q-192 0 -311 113.5t-119 314.5zM242 444v-14q0 -132 74 -208q78 -80 219 -81q111 0 210.5 54.5t163 154t66.5 219.5v12q0 127 -78 209q-82 86 -213 87h2q-115 0 -213 -49.5t-162.5 -150t-68.5 -233.5z" />
<glyph unicode="e" horiz-adv-x="1208" d="M70 418v8q0 167 80 306q82 142 225 222t313 80q118 0 209 -36t151 -109.5t74 -185.5q4 -30 3 -63q0 -90 -27 -200h-860q-1 -14 -1 -27q0 -121 74 -195q82 -80 244 -81q91 0 187.5 34t154.5 93l96 -102h-2q-87 -87 -213.5 -133.5t-251.5 -46.5q-207 0 -330 118t-126 318z M260 582h701v-2q4 31 4 59q0 244 -297 244q-137 0 -250.5 -79.5t-157.5 -221.5z" />
<glyph unicode="f" horiz-adv-x="708" d="M80 860l24 141h199l14 80q31 173 138 269t270 96q100 0 182 -51l-78 -135q-61 40 -127 40q-84 0 -141.5 -55.5t-77.5 -163.5l-14 -80h274l-24 -141h-275l-153 -860h-166l154 860h-199z" />
<glyph unicode="g" horiz-adv-x="1261" d="M-27 -170h162q-5 -27 -5 -51q0 -41 13 -75q20 -55 65.5 -87.5t105 -49t130.5 -16.5q59 0 115 9t109 29.5t92.5 51t63.5 78t24 105.5q0 101 -90 156t-226 55q-211 0 -333.5 109.5t-122.5 301.5q0 113 38 211t101.5 166t146 117t171 72.5t176.5 23.5q74 0 150.5 -19.5 t123.5 -55.5l131 131l103 -95l-140 -135q82 -113 82 -252q0 -100 -39.5 -196.5t-124 -178t-200.5 -116.5q114 -35 169.5 -107.5t55.5 -167.5q0 -106 -53 -192.5t-139.5 -141t-193 -83.5t-218.5 -29q-234 0 -358 116q-94 88 -94 225q0 43 9 91zM252 535q-6 -39 -6 -74 q0 -115 68 -186q88 -93 247 -93q179 0 305.5 120.5t126.5 289.5q0 137 -88.5 214t-222.5 77q-69 0 -137.5 -22t-129 -63t-104.5 -109.5t-59 -153.5z" />
<glyph unicode="h" horiz-adv-x="1294" d="M51 0l230 1288h-168l24 146h336l-104 -590q77 94 176.5 138t204.5 44q206 0 290 -127q58 -88 59 -218q0 -59 -12 -126l-53 -305q-4 -21 -4 -37.5t3 -28.5t11.5 -20t16.5 -12.5t22 -6.5t25 -2t28.5 2t28.5 4t29 5l-23 -148q-41 -8 -77 -11q-19 -2 -39 -2q-16 -1 -33 1 q-36 2 -62 13t-49.5 29.5t-34 48t-14.5 69.5q-1 12 -2 25q0 32 8 71l56 301q10 60 10 109q0 36 -6 65q-12 70 -68 105.5t-162 35.5q-140 0 -249.5 -94.5t-135.5 -234.5l-94 -537h-168z" />
<glyph unicode="i" horiz-adv-x="598" d="M94 866l27 150h328q-21 -127 -67 -383t-67 -383q-4 -19 -4.5 -34.5t3 -26.5t9 -19.5t15 -13.5t19 -8.5t23 -4t24.5 -0.5t26.5 2.5t26.5 4t26 4.5l-24 -148q-43 -8 -79 -11q-20 -2 -39 -2q-16 -1 -33 1q-36 2 -63 13t-50.5 29.5t-34.5 48t-16 69.5q-2 13 -2 27q0 31 8 69 q18 114 56 325.5t52 290.5h-164zM311 1303q0 59 40 93t91 34q39 0 67 -24.5t28 -68.5q0 -58 -42 -92.5t-92 -34.5q-39 0 -65.5 24.5t-26.5 68.5z" />
<glyph unicode="j" horiz-adv-x="542" d="M-299 -444l80 135q62 -35 131 -35q45 1 76 16.5t50.5 46t30.5 65t21 87.5l174 991h-182l27 150h348l-201 -1141q-32 -182 -118 -276.5t-247 -94.5q-105 0 -190 56zM317 1307q0 59 41 93t93 34q39 0 65.5 -24.5t26.5 -68.5q0 -59 -41 -93t-90 -34q-39 0 -67 24.5t-28 68.5 z" />
<glyph unicode="k" horiz-adv-x="1110" d="M51 0l228 1282h-164l24 152h330l-145 -842l399 287l27 135h346l-23 -140h-127l-387 -282l197 -352q32 -58 62 -80q28 -21 65 -21h3q38 1 97 11l-25 -150q-57 -9 -102 -9q-64 0 -106 18q-72 31 -134 145l-186 344l-141 -101l-72 -397h-166z" />
<glyph unicode="l" horiz-adv-x="540" d="M92 154q-1 12 -2 25q0 32 8 71q133 751 185 1034h-166l24 150h330l-209 -1186q-4 -19 -4 -34t3.5 -26t9.5 -19.5t16 -13t19.5 -8t23 -4t25 -0.5t27 2t26.5 4t26 5l-24 -148q-42 -8 -78 -11q-20 -2 -40 -2q-17 -1 -33 1q-37 2 -64 13t-51.5 29.5t-36 48t-15.5 69.5z" />
<glyph unicode="m" horiz-adv-x="1996" d="M90 866l27 148h325l-16 -148q55 83 144 124.5t182 41.5q267 0 299 -223q74 113 180 168t219 55q208 0 296 -120q61 -84 62 -212q0 -55 -12 -118q-11 -64 -32.5 -180.5t-28.5 -155.5q-4 -21 -4 -37.5t3.5 -28.5t11.5 -20t16.5 -12.5t22.5 -6.5t25 -2t28.5 2t28.5 4t29 5 l-26 -146q-42 -8 -77 -11q-19 -2 -38 -2q-16 -1 -33 1q-36 2 -62 13t-49.5 29.5t-34 48t-14.5 69.5q-1 11 -1 23q0 33 8 73q4 22 27 145t34 189q9 49 9 90q0 76 -30 126q-46 76 -192 76q-122 0 -214 -85t-116 -211l-100 -578h-168l103 578q9 48 9 89q0 207 -231 207 q-123 0 -212 -84.5t-111 -211.5l-105 -578h-170l152 866h-164z" />
<glyph unicode="n" horiz-adv-x="1361" d="M90 866l27 150h311l-8 -160q79 98 170 137t209 39q143 0 233 -60q92 -59 122 -164q17 -58 17 -127q0 -56 -12 -120q-10 -60 -29 -168.5t-26 -146.5q-5 -21 -5 -37.5t3 -28.5t11.5 -20t16.5 -12.5t22 -6.5t25 -2t28 2t28 4t29 5l-25 -146q-41 -8 -77 -11q-19 -2 -39 -2 q-16 -1 -33 1q-36 2 -62 13t-49 29.5t-33 47.5q-12 30 -16 70q-1 11 -1 24q0 32 9 72q3 20 23.5 135t31.5 176q10 56 10 101q-1 89 -37 140q-54 77 -225 77q-141 -2 -244 -90.5t-126 -239.5l-99 -547h-166l154 866h-168z" />
<glyph unicode="o" horiz-adv-x="1245" d="M74 422v17q0 163 76 297q80 141 218.5 219.5t307.5 78.5q207 0 333 -118t130 -326v-12q-1 -256 -167 -424q-170 -172 -437 -172q-206 0 -330.5 122t-130.5 318zM244 442q3 -142 76.5 -222.5t230.5 -80.5q163 0 276 101.5t140 263.5q6 40 6 76q0 118 -63 198 q-82 104 -246 103q-114 0 -212 -56q-96 -55 -154 -157q-54 -95 -54 -210v-16z" />
<glyph unicode="p" horiz-adv-x="1370" d="M16 -481l238 1347h-166l25 150h329l-32 -178q97 103 201.5 146.5t226.5 43.5q194 -5 309 -117.5t115 -310.5q0 -180 -68 -318t-203.5 -219t-324.5 -86q-114 0 -215.5 54.5t-153.5 156.5l-117 -669h-164zM365 436q0 -131 81 -217t216 -90q184 0 306 122t122 322 q0 295 -299 295q-179 0 -302.5 -126.5t-123.5 -305.5z" />
<glyph unicode="q" horiz-adv-x="1318" d="M70 414q0 180 82.5 322.5t221 219t306.5 76.5q123 0 217 -55.5t133 -155.5l41 197h162l-262 -1499h-162l115 659q-72 -101 -187 -151t-231 -50q-201 0 -318.5 118.5t-117.5 318.5zM240 438q-1 -139 77 -221t213 -82q115 2 216 59.5t162 157t63 215.5v10q0 127 -75 209 q-78 86 -214 86q-88 0 -167.5 -31t-139.5 -86t-96.5 -137.5t-38.5 -179.5z" />
<glyph unicode="r" horiz-adv-x="958" d="M88 866l27 148h311l-6 -135q60 83 162 124q79 32 163 32q25 0 50 -3q111 -12 194 -76l-100 -139q-74 55 -166 55q-145 -3 -235.5 -81.5t-116.5 -223.5l-101 -567h-166l150 866h-166z" />
<glyph unicode="s" horiz-adv-x="1050" d="M16 98l50 250h147l-23 -164q44 -26 119.5 -40.5t143.5 -14.5q43 0 84 6.5t85.5 21.5t75.5 47t41 77q3 14 3 27q0 24 -10 44q-15 30 -52 49.5t-83 30.5t-108 17q-60 9 -105 18.5t-95.5 29t-82.5 44.5t-53.5 66t-21.5 93q0 87 43 154.5t113 105.5t149.5 57t163.5 19 q96 0 193.5 -24t173.5 -68l-45 -246h-146l19 150q-34 19 -101 30t-119 11h-11q-115 0 -189 -42q-78 -44 -78 -132q0 -32 17.5 -54.5t53.5 -36t69.5 -20t86.5 -12.5q71 -10 114.5 -18.5t108 -32.5t98.5 -56q33 -31 53 -89q11 -32 12 -71q0 -30 -7 -63q-57 -287 -483 -287 q-213 0 -404 123z" />
<glyph unicode="t" horiz-adv-x="788" d="M74 866l24 144h203l49 278l172 19l-53 -297h313l-24 -144h-316l-94 -534q-9 -57 -9 -99q0 -48 33 -72q32 -24 101 -24t148 37l24 -143q-97 -42 -205 -45h-10q-152 0 -214 86q-44 61 -44 160q0 46 10 100l94 534h-202z" />
<glyph unicode="u" horiz-adv-x="1355" d="M70 866l26 150h326l-98 -557q-10 -58 -10 -106q0 -87 33 -135q51 -76 222 -75q105 1 187.5 51t130.5 130.5t67 183.5l62 358h-168l26 150h336l-133 -754q-6 -33 -6 -56q0 -26 7 -40q13 -28 50.5 -27.5t94.5 13.5l-23 -152q-44 -8 -83 -11q-12 -1 -25 -1q-27 0 -56 4 q-42 6 -71 24t-46 55q-13 29 -13 67q0 11 1 24q-88 -94 -176.5 -134t-216.5 -40h-3q-215 0 -303 123q-61 86 -62 219q0 59 12 127l69 409h-157z" />
<glyph unicode="v" horiz-adv-x="1226" d="M63 866l27 150h326l-99 -557q-6 -39 -6 -74q1 -93 45 -156q62 -86 209 -86q120 2 206 64.5t126.5 159.5t53.5 213q6 53 6 106q-1 62 -9 124q-16 113 -51 204h168q31 -116 43 -207q10 -73 11 -154q0 -19 -1 -39q-5 -133 -43.5 -244.5t-110 -198t-185.5 -135t-259 -48.5 q-197 0 -295 132q-78 105 -78 256q0 39 5 81l69 409h-158z" />
<glyph unicode="w" horiz-adv-x="1953" d="M63 866l25 148h326l-97 -555q-10 -59 -10 -106q0 -85 32 -133q50 -76 208 -77q124 1 224 106.5t128 258.5l84 504h170l-96 -553q-6 -38 -6 -72q0 -95 47 -158q64 -86 213 -86q90 1 160.5 40t114.5 105.5t66.5 149.5t24.5 178v15q-1 99 -13 179q-14 86 -46 204h168 q34 -126 44.5 -207.5t10.5 -190.5q-1 -142 -35.5 -253t-89.5 -180t-131 -114t-154 -63t-165 -18q-133 0 -219.5 60.5t-122.5 170.5q-83 -126 -184 -178.5t-248 -52.5h-3q-203 0 -289 124q-60 86 -60 217q0 59 12 128l69 409h-158z" />
<glyph unicode="x" horiz-adv-x="1144" d="M-43 0l27 143h127l344 385l-138 246q-29 57 -59 81q-28 22 -61 22h-5q-35 -2 -83 -13l20 148q61 12 109 12q21 0 39 -2q60 -8 99.5 -44t78.5 -118l118 -229l209 239h-2l27 144h321l-24 -144h-135l-316 -356l154 -274q40 -76 82 -92q20 -8 51 -7q34 0 80 9l-23 -148 q-59 -9 -106 -9q-19 0 -35 1q-58 5 -103 42t-87 118l-134 256l-239 -267l-27 -143h-309z" />
<glyph unicode="y" horiz-adv-x="1257" d="M-61 -416l88 140q71 -44 129 -44q83 0 141 89l137 243l-213 852h-143l26 150h461l-26 -148h-131l100 -381l57 -290l154 286l219 383h-158l27 150h475l-27 -150h-133l-673 -1145q-49 -82 -110.5 -131.5t-128.5 -63.5q-31 -6 -63 -6q-35 0 -71 8q-69 15 -137 58z" />
<glyph unicode="z" horiz-adv-x="1019" d="M-23 0l11 63l723 801h-392l-36 -153h-150q9 52 26.5 151.5t26.5 151.5h783l-17 -92l-690 -768h424l39 184h149l-59 -338h-838z" />
<glyph unicode="{" horiz-adv-x="677" d="M63 528l23 129q155 0 190 209l50 283q33 188 134.5 265t291.5 40l-23 -125q-112 23 -162.5 -18.5t-72.5 -167.5l-50 -277q-6 -35 -9 -50.5t-11 -47t-15.5 -47.5t-22 -39.5t-32 -37.5t-43 -28t-57.5 -22q29 -8 50 -22t33.5 -28.5t18.5 -38.5t8.5 -40t-0.5 -47t-5.5 -46.5 t-8.5 -49.5l-51 -289q-22 -125 12.5 -162.5t159.5 -20.5l-22 -129l-5 -2q-208 -33 -278 42t-37 264l51 294q7 42 7 74.5t-9.5 65.5t-38.5 51t-76 18z" />
<glyph unicode="|" horiz-adv-x="548" d="M47 -211l299 1698h166l-299 -1698h-166z" />
<glyph unicode="}" horiz-adv-x="673" d="M-84 -289l23 131v-4q121 -19 168 18t69 162l49 289q6 33 9 50t11 47.5t16.5 47.5t23 41t32.5 38.5t43.5 28.5t57.5 22q-33 10 -56 25t-34.5 36.5t-17 42t-4 50.5t4.5 52t9 57q1 7 2 11l47 274q22 127 -13.5 168.5t-156.5 18.5l22 127q202 36 276.5 -41.5t41.5 -265.5 l-50 -281q-7 -42 -7 -74.5t9.5 -65.5t38.5 -51t76 -18l-22 -127q-156 0 -191 -209l-53 -295q-33 -189 -130.5 -263.5t-293.5 -41.5z" />
<glyph unicode="~" horiz-adv-x="1275" d="M121 557q73 140 196.5 201t239.5 0l238 -127q139 -77 249 108l117 -49q-49 -94 -115.5 -151t-147.5 -71t-169 30l-242 129q-35 14 -64.5 17t-63 -5.5t-66.5 -41.5t-64 -89z" />
<glyph unicode="&#xa1;" horiz-adv-x="534" d="M-6 -440h180l195 1104h-181zM197 885q0 62 41.5 98.5t95.5 38.5q44 2 74 -24.5t30 -73.5q0 -63 -44 -100.5t-99 -37.5q-41 0 -69.5 26.5t-28.5 72.5z" />
<glyph unicode="&#xa2;" d="M238 397q0 232 155.5 399t388.5 203l25 134h158l-25 -134q166 -24 270 -149l-123 -107q-43 51 -110.5 80t-138.5 29q-113 0 -211.5 -52t-161 -153t-62.5 -229q0 -140 85.5 -221.5t220.5 -81.5q68 0 145 31.5t141 84.5l86 -120q-152 -125 -325 -146l-27 -145h-158l27 147 h2q-164 25 -263 140t-99 290z" />
<glyph unicode="&#xa3;" d="M53 0l29 166l4 -2q74 49 126 103.5t80.5 112t42 112t15.5 116.5h-188l26 144h156q-10 123 -10 172q0 127 45.5 228t126 165.5t187 98.5t231.5 34q101 0 179.5 -21.5t136.5 -66.5t81.5 -123.5t7.5 -185.5h-160q34 241 -274 241q-181 0 -286 -97.5t-105 -278.5 q0 -64 4 -162h491l-24 -144h-459q-4 -125 -58 -248t-173 -206h741l45 221h160l-68 -379h-1110z" />
<glyph unicode="&#xa4;" horiz-adv-x="1169" d="M57 301l142 119q-52 108 -28 237.5t114 235.5l-103 121l146 125l100 -123q109 61 242 61q128 0 217 -61l143 123l100 -125l-139 -119q51 -107 27 -239t-113 -236l101 -119l-146 -123l-100 121q-109 -59 -240 -59q-128 0 -219 59l-143 -121zM307 614q0 -100 61.5 -169.5 t174.5 -69.5q148 0 241 100.5t93 229.5q0 101 -61 170t-173 69q-97 0 -176 -49.5t-119.5 -124.5t-40.5 -156z" />
<glyph unicode="&#xa5;" d="M141 1270l29 164h522l-28 -164h-170l243 -527l437 527h-170l28 164h522l-28 -164h-146l-444 -527h209l-25 -137h-301l-20 -24l-17 -93h324l-25 -135h-323l-33 -192h184l-28 -162h-549l28 162h185l33 192h-318l25 135h317l16 93l-12 24h-301l25 137h211l-254 527h-146z " />
<glyph unicode="&#xa6;" horiz-adv-x="563" d="M55 -182l131 747h176l-131 -747h-176zM211 700l133 750h176l-133 -750h-176z" />
<glyph unicode="&#xa7;" horiz-adv-x="1167" d="M31 162l133 112q99 -155 336 -155q51 0 100.5 8.5t96 25.5t79.5 48.5t43 72.5q8 37 -9.5 64t-59.5 43t-88.5 24.5t-112.5 14.5q-79 5 -147.5 21t-128 45t-94 78t-34.5 112q0 81 64.5 155.5t167.5 106.5q-83 24 -119.5 84t-21.5 141q13 65 51.5 117t90.5 85.5t117.5 56 t129.5 31.5t129 9q121 0 224.5 -35t162.5 -112l-125 -96h-4q-57 54 -125.5 74t-165.5 20q-75 1 -142 -15t-114 -51t-55 -82q-6 -39 14.5 -67t64 -44t84 -24.5t93.5 -13.5q71 -6 126.5 -14.5t119 -30t102 -52t57 -82.5t2.5 -120q-20 -82 -82.5 -138t-150.5 -77 q88 -27 129.5 -89t21.5 -145q-17 -84 -75 -147t-137 -95.5t-156.5 -47.5t-153.5 -15q-147 0 -265 50.5t-173 148.5zM317 713q-15 -79 88.5 -122t246.5 -27q151 18 215 90q26 29 32 63v-2q15 80 -88 126q-101 46 -242 33q-151 -15 -217 -89q-28 -32 -35 -72z" />
<glyph unicode="&#xa8;" horiz-adv-x="983" d="M356 1348q0 58 39.5 92.5t89.5 34.5q39 0 67 -23.5t28 -65.5q0 -59 -41 -92.5t-93 -33.5q-38 0 -64 23.5t-26 64.5zM827 1348q0 60 41.5 93.5t92.5 33.5q39 0 64.5 -23.5t25.5 -65.5q0 -60 -40.5 -94.5t-92.5 -34.5q-39 0 -65 24t-26 67z" />
<glyph unicode="&#xa9;" horiz-adv-x="1697" d="M113 596q0 171 64.5 328.5t179 278t283.5 192t366 71.5v-2q150 0 270 -48.5t195.5 -133.5t115 -196.5t39.5 -241.5q0 -170 -63.5 -328t-176.5 -279t-281 -193.5t-364 -72.5q-152 0 -273 49t-197.5 134.5t-117 198t-40.5 243.5zM270 610q0 -144 55.5 -256.5t169.5 -180 t271 -67.5q156 0 289.5 58.5t223 157.5t139.5 229.5t50 273.5q0 221 -127 361.5t-360 140.5q-156 0 -290.5 -58t-225.5 -156t-143 -228.5t-52 -274.5zM483 659q0 -150 96 -241.5t250 -91.5q168 0 310 120l-80 99q-97 -82 -203 -82q-99 0 -161 60.5t-62 156.5 q0 128 93.5 213.5t221.5 85.5q109 0 172 -78l119 94l-6 9q-91 120 -264 120q-129 0 -240 -59t-178.5 -167t-67.5 -239z" />
<glyph unicode="&#xaa;" horiz-adv-x="1017" d="M147 512l25 133h702l-24 -133h-703zM217 1040q0 94 34 172t91 129t131 79t156 28q72 0 131 -32.5t86 -90.5l20 111h133l-118 -664h-133l-3 -2l19 115q-47 -61 -119 -94t-143 -35q-129 0 -207 75t-78 209zM367 1065q0 -79 48.5 -127.5t125.5 -48.5q120 0 193 96 q61 80 54 174q-8 97 -84 136q-39 20 -92 20l4 -2q-101 0 -175 -70.5t-74 -177.5z" />
<glyph unicode="&#xab;" horiz-adv-x="909" d="M88 608l363 451h180l-361 -451l201 -452h-180zM356 608l363 451h180l-360 -451l200 -452h-180z" />
<glyph unicode="&#xac;" horiz-adv-x="1056" d="M145 606l27 154h754l-74 -424h-154l47 270h-600z" />
<glyph unicode="&#xad;" horiz-adv-x="1011" d="M121 508l29 160h733l-29 -160h-733z" />
<glyph unicode="&#xae;" horiz-adv-x="1693" d="M113 590q0 137 39.5 266t117 238.5t183 192t246 129t298.5 46.5q151 0 271 -48t196 -133t116 -196.5t40 -242.5q0 -137 -39.5 -266.5t-117 -239.5t-184 -192.5t-247.5 -129.5t-299 -47q-121 0 -222.5 32t-174 88.5t-123.5 134.5t-75.5 171t-24.5 197zM283 715v4 q0 -107 13.5 -194.5t47 -166.5t87 -132.5t137 -85t192.5 -31.5q156 0 289 58t223 156t141 228.5t51 273.5q0 107 -31.5 198t-92 159t-154.5 106.5t-213 38.5q-183 0 -337.5 -81t-248 -221t-104.5 -310zM518 342h141l48 266h133l166 -266h155l4 29l-174 256v-2 q86 14 149 68.5t82.5 123.5t9.5 136t-70.5 112t-155.5 45h-353zM727 729l43 248h211q81 0 103 -62q21 -55 -15 -113q-52 -69 -135 -73h-207z" />
<glyph unicode="&#xaf;" horiz-adv-x="1081" d="M317 1292l27 146h684l-27 -146h-684z" />
<glyph unicode="&#xb0;" horiz-adv-x="661" d="M226 1301q38 99 132 146q59 30 127 30q124 0 172 -91q41 -80 6 -179q-36 -100 -127 -147q-57 -30 -126 -30q-134 0 -182 94q-40 79 -2 177zM324 1196q23 -62 100 -63q79 0 120 66q35 57 16 112q-21 61 -95 61q-78 0 -121 -65q-37 -56 -20 -111z" />
<glyph unicode="&#xb1;" horiz-adv-x="1064" d="M53 70l27 155h780l-26 -155h-781zM154 684l26 156h316l57 321h164l-58 -321h316l-27 -156h-315l-58 -324h-163l57 324h-315z" />
<glyph unicode="&#xb2;" horiz-adv-x="739" d="M119 846l31 178q14 80 63.5 134.5t109.5 77.5t134 30q36 3 55 5.5t47 7.5t42.5 13t29.5 21t21.5 32t6.5 44q0 92 -139 92q-150 0 -172 -107h-131q11 60 44 105t79 70t96 36.5t105 11.5q112 0 183 -44.5t71 -143.5q0 -64 -22.5 -111t-49.5 -71.5t-78.5 -41t-79.5 -20.5 t-83 -9q-6 -1 -9 -1q-28 -2 -45 -4.5t-44.5 -11t-44 -21.5t-32 -37.5t-20.5 -58.5l-8 -51h315l22 104h125l-41 -229h-581z" />
<glyph unicode="&#xb3;" horiz-adv-x="727" d="M143 1063h136q-2 -32 10.5 -53.5t36.5 -31.5t46 -13.5t48 -3.5q184 0 184 139q0 44 -32.5 71t-104.5 27h-82l-6 33l213 246h-234l-18 -82h-117l35 198h555l-6 -39l-232 -256q79 -5 124.5 -47t45.5 -127q0 -65 -21.5 -117t-56 -83.5t-81.5 -52.5t-93.5 -29t-97.5 -8 q-56 0 -103.5 12.5t-85.5 38.5t-55.5 72t-7.5 106z" />
<glyph unicode="&#xb4;" horiz-adv-x="473" d="M246 1163l2 11l196 260h207v-7l-252 -264h-153z" />
<glyph unicode="&#xb5;" horiz-adv-x="1255" d="M41 -455l258 1467h166l-105 -596q-13 -72 3.5 -132.5t54.5 -99t89 -59.5t109 -21q126 0 234 87.5t137 250.5l100 570h166l-178 -1012h-147l8 125q-58 -83 -158.5 -127t-195.5 -41q-102 0 -182.5 39.5t-100.5 126.5l-102 -578h-156z" />
<glyph unicode="&#xb6;" horiz-adv-x="1654" d="M99.5 777q-4.5 63 9.5 126q19 101 69.5 194.5t127.5 169t187 120.5t236 45h993l-26 -160h-205l-303 -1712h-164l303 1712h-491l-304 -1714h-167l145 821q-80 3 -147.5 26t-114 60t-80.5 86t-49 106t-19.5 120z" />
<glyph unicode="&#xb7;" horiz-adv-x="507" d="M131 559q0 62 41.5 97.5t95.5 35.5q41 0 70 -24.5t29 -69.5q0 -61 -41 -96t-95 -35q-44 0 -72 24.5t-28 67.5z" />
<glyph unicode="&#xb8;" horiz-adv-x="686" d="M-6 -332l92 72q41 -72 139 -72q40 0 75 18t52 52q29 59 -23 93t-143 3l-28 27l-8 -2l86 186h124l-47 -113q64 1 106 -19t58 -52.5t15.5 -70.5t-15.5 -77q-34 -82 -109.5 -125t-162.5 -41q-73 2 -130 32.5t-81 88.5z" />
<glyph unicode="&#xb9;" horiz-adv-x="495" d="M106 846l21 117h129l82 471l-115 -29l21 119l256 59l-109 -620h131l-20 -117h-396z" />
<glyph unicode="&#xba;" horiz-adv-x="851" d="M74 498l22 133h666l-23 -133h-665zM152 1040q0 185 121 295.5t294 110.5q132 0 213.5 -75.5t81.5 -207.5q0 -123 -59 -218t-152 -143t-202 -48q-132 0 -214.5 76t-82.5 210zM299 1065q0 -80 46.5 -128t127.5 -48q106 0 177 71t71 179q0 79 -48.5 129.5t-125.5 50.5 q-102 0 -175 -73t-73 -181z" />
<glyph unicode="&#xbb;" horiz-adv-x="911" d="M14 160l359 450l-199 451h178l203 -451l-362 -450h-179zM283 160l358 450l-199 451h179l202 -451l-362 -450h-178z" />
<glyph unicode="&#xbc;" horiz-adv-x="1519" d="M109 700l20 117h129l84 469l-117 -26l23 118l256 60l-111 -621h131l-20 -117h-395zM172 -4l1026 1448h160l-1030 -1448h-156zM760 150l10 110l440 479h179l-84 -469h88l-21 -120h-88l-27 -148h-131l27 148h-393zM920 270h254l61 340z" />
<glyph unicode="&#xbd;" horiz-adv-x="1619" d="M104 700l21 117h127l84 471l-115 -26l21 118l258 60l-111 -623h131l-20 -117h-396zM164 -4l1028 1448h160l-1030 -1448h-158zM850 -2l31 178q14 80 63.5 134.5t109.5 77.5t134 30q36 3 55 5.5t47 7.5t42.5 13t30 21t22 32t6.5 44q0 92 -142 92q-148 0 -170 -107h-131 q11 60 44 105.5t79 70t96.5 36.5t104.5 12q112 0 183 -45t71 -144q0 -64 -22.5 -111t-50 -71.5t-79.5 -41t-80 -20.5t-83 -9q-6 -1 -9 -1q-28 -2 -45 -4.5t-44 -11t-43.5 -21.5t-31.5 -37.5t-20 -58.5l-8 -51h315l23 104h125l-41 -229h-582z" />
<glyph unicode="&#xbe;" horiz-adv-x="1599" d="M137 934h131q-2 -31 10 -52.5t35 -31t45 -13t48 -3.5q182 0 182 135q0 44 -32.5 71t-102.5 27h-80l-6 31l208 239h-229l-18 -80h-113l35 195h541l-7 -37l-229 -250q77 -5 123.5 -47t46.5 -125q0 -79 -31 -136.5t-83 -88t-108.5 -44t-119.5 -13.5q-55 0 -101.5 12 t-83.5 37.5t-54 70t-7 103.5zM260 -4l1030 1450h160l-1034 -1450h-156zM825 152l11 110l442 494h178l-86 -484h103l-21 -120h-102l-27 -154h-131l27 154h-394zM985 272h254l61 353z" />
<glyph unicode="&#xbf;" horiz-adv-x="1234" d="M-41 -70q0 62 15 117t32.5 93.5t57.5 76.5t62 57.5t76 47.5t70 34.5t72 29.5q21 9 31 13q114 39 155 93.5t66 195.5h178q-18 -104 -46.5 -176t-73.5 -121t-98 -79.5t-134 -57.5q-38 -14 -59.5 -22.5t-54.5 -24.5t-52.5 -30.5t-43 -37.5t-36 -47.5t-21 -58.5t-8.5 -74 q0 -217 328 -217q65 0 128 14t122.5 43.5t103 83.5t58.5 125h182l-4 -2q-19 -111 -80.5 -196t-149 -134t-186.5 -73t-205 -23q-78 0 -146.5 11t-131.5 37t-108.5 65.5t-72 100t-26.5 136.5zM606 899q0 63 41.5 100t95.5 39q42 2 72.5 -23.5t30.5 -70.5q0 -63 -42 -100 t-97 -39q-42 -2 -71.5 23.5t-29.5 70.5z" />
<glyph unicode="&#xc0;" horiz-adv-x="1667" d="M-76 0l29 164h139l699 1108h-166l28 162h443l338 -1270h145l-29 -164h-508l29 164h178q-11 39 -22.5 83t-23.5 94.5t-19 76.5h-735q-15 -25 -71 -113.5t-87 -140.5h174l-29 -164h-512zM547 578h594q-90 355 -176 682q-102 -165 -248 -404t-170 -278zM764 1798v6h205 l108 -260l-2 -10h-153z" />
<glyph unicode="&#xc1;" horiz-adv-x="1667" d="M-76 0l29 164h139l699 1108h-166l28 162h443l338 -1270h145l-29 -164h-508l29 164h178q-11 39 -22.5 83t-23.5 94.5t-19 76.5h-735q-15 -25 -71 -113.5t-87 -140.5h174l-29 -164h-512zM547 578h594q-90 355 -176 682q-102 -165 -248 -404t-170 -278zM901 1530l2 10 l197 260h207v-6l-252 -264h-154z" />
<glyph unicode="&#xc2;" horiz-adv-x="1667" d="M-76 0l29 164h139l699 1108h-166l28 162h443l338 -1270h145l-29 -164h-508l29 164h178q-11 39 -22.5 83t-23.5 94.5t-19 76.5h-735q-15 -25 -71 -113.5t-87 -140.5h174l-29 -164h-512zM547 578h594q-90 355 -176 682q-102 -165 -248 -404t-170 -278zM645 1522l2 14 l342 264h109l245 -264l-2 -14h-174l-147 155l-203 -155h-172z" />
<glyph unicode="&#xc3;" horiz-adv-x="1667" d="M-76 0l29 164h139l699 1108h-166l28 162h443l338 -1270h145l-29 -164h-508l29 164h178q-11 39 -22.5 83t-23.5 94.5t-19 76.5h-735q-15 -25 -71 -113.5t-87 -140.5h174l-29 -164h-512zM547 578h594q-90 355 -176 682q-102 -165 -248 -404t-170 -278zM678 1606 q40 93 115.5 134t156.5 11q11 -3 53.5 -27.5t53.5 -27.5q28 -15 63 -2t58 57l102 -47q-41 -101 -117 -138.5t-147 -6.5q-13 3 -55 27t-50 26q-81 30 -131 -62l-100 49z" />
<glyph unicode="&#xc4;" horiz-adv-x="1667" d="M-76 0l29 164h139l699 1108h-166l28 162h443l338 -1270h145l-29 -164h-508l29 164h178q-11 39 -22.5 83t-23.5 94.5t-19 76.5h-735q-15 -25 -71 -113.5t-87 -140.5h174l-29 -164h-512zM547 578h594q-90 355 -176 682q-102 -165 -248 -404t-170 -278zM666 1612 q0 58 39.5 92.5t89.5 34.5q39 0 66.5 -23t27.5 -65q0 -59 -40.5 -93t-92.5 -34q-38 0 -64 23.5t-26 64.5zM1137 1612q0 60 41 93.5t92 33.5q40 0 65 -23t25 -65q0 -60 -40.5 -94.5t-92.5 -34.5q-39 0 -64.5 23.5t-25.5 66.5z" />
<glyph unicode="&#xc5;" horiz-adv-x="1662" d="M-76 0l29 164h139l490 780l266 418q-92 57 -72 188h2q19 103 101.5 162.5t179.5 59.5q85 0 145 -49.5t60 -137.5q0 -76 -40.5 -133.5t-109.5 -91.5l320 -1196h139l-29 -164h-508l29 164h178q-11 39 -22.5 83t-23.5 94.5t-19 76.5h-736l-157 -254h174l-29 -164h-506z M541 578h594l-86 352q-10 42 -34 166.5t-42 191.5l-213 -358zM903 1494q22 -56 96 -56q83 0 124 64q34 53 13 105q-23 56 -98 56q-80 0 -120 -64q-35 -54 -15 -105z" />
<glyph unicode="&#xc6;" horiz-adv-x="1982" d="M-88 0l29 164h153l899 1108h-166l29 162h1141l-66 -381h-159l30 217h-485l-80 -457h489l-28 -166h-490l-86 -479h516l45 219h160l-67 -387h-1022l28 164h170l47 264h-491l-213 -264h158l-29 -164h-512zM621 571h403l92 523l29 143z" />
<glyph unicode="&#xc7;" d="M106 588q0 128 38 253t114.5 236t181.5 195.5t250 134t309 49.5q126 0 238.5 -42.5t198.5 -123.5q-10 -65 -58 -303h-159l32 221q-112 78 -282 78q-140 0 -260 -48t-203 -129.5t-136 -183t-73 -214.5q-14 -73 -8.5 -142.5t23.5 -132t57.5 -115t93.5 -90.5t132.5 -59.5 t172.5 -21.5q109 0 224.5 42.5t207.5 120.5l107 -120q-243 -203 -541 -213l-57 -113q64 1 106 -19t58 -52.5t15.5 -70.5t-16.5 -77q-33 -82 -110 -126t-162 -44q-72 0 -131 32t-84 91l94 71q19 -38 56.5 -56.5t82.5 -16.5q92 4 125 69q29 59 -24.5 93t-145.5 3l-28 27 l100 195q-136 12 -241.5 65t-169.5 136t-96 184t-32 217z" />
<glyph unicode="&#xc8;" horiz-adv-x="1406" d="M-2 0l29 164h178l194 1108h-174l29 162h1167l-65 -381h-160l31 217h-652l-79 -457h653l-29 -166h-653l-86 -479h682l45 219h160l-68 -387h-1202zM698 1802v6h205l109 -260l-2 -10h-154z" />
<glyph unicode="&#xc9;" horiz-adv-x="1406" d="M-2 0l29 164h178l194 1108h-174l29 162h1167l-65 -381h-160l31 217h-652l-79 -457h653l-29 -166h-653l-86 -479h682l45 219h160l-68 -387h-1202zM831 1534l3 10l196 260h207v-6l-252 -264h-154z" />
<glyph unicode="&#xca;" horiz-adv-x="1406" d="M-2 0l29 164h178l194 1108h-174l29 162h1167l-65 -381h-160l31 217h-652l-79 -457h653l-29 -166h-653l-86 -479h682l45 219h160l-68 -387h-1202zM549 1540l2 14l344 275h109l245 -275l-2 -14h-174l-147 162l-203 -162h-174z" />
<glyph unicode="&#xcb;" horiz-adv-x="1406" d="M-2 0l29 164h178l194 1108h-174l29 162h1167l-65 -381h-160l31 217h-652l-79 -457h653l-29 -166h-653l-86 -479h682l45 219h160l-68 -387h-1202zM571 1630q0 58 39.5 92.5t89.5 34.5q40 0 67.5 -23t27.5 -65q0 -59 -40.5 -93t-92.5 -34q-39 0 -65 23.5t-26 64.5z M1042 1630q0 60 41.5 93.5t92.5 33.5q40 0 65 -23t25 -65q0 -60 -40.5 -94.5t-92.5 -34.5q-39 0 -65 24t-26 66z" />
<glyph unicode="&#xcc;" horiz-adv-x="751" d="M-2 0l29 164h182l194 1106h-178l29 164h537l-29 -164h-180l-195 -1106h184l-28 -164h-545zM315 1800v6h205l109 -260l-2 -10h-154z" />
<glyph unicode="&#xcd;" horiz-adv-x="751" d="M-2 0l29 164h182l194 1106h-178l29 164h537l-29 -164h-180l-195 -1106h184l-28 -164h-545zM457 1536l2 10l196 260h207v-6l-252 -264h-153z" />
<glyph unicode="&#xce;" horiz-adv-x="751" d="M-2 0l29 164h182l194 1106h-178l29 164h537l-29 -164h-180l-195 -1106h184l-28 -164h-545zM193 1532l2 14l317 283h100l228 -283l-2 -14h-160l-137 166l-187 -166h-161z" />
<glyph unicode="&#xcf;" horiz-adv-x="751" d="M-2 0l29 164h182l194 1106h-178l29 164h537l-29 -164h-180l-195 -1106h184l-28 -164h-545zM250 1608q0 60 41 94.5t92 32.5q38 -2 64 -24.5t26 -63.5q0 -56 -38.5 -90.5t-86.5 -36.5q-41 -2 -69.5 21t-28.5 67zM649 1608q0 60 40 93.5t91 33.5q39 0 65.5 -24t26.5 -66 q0 -57 -39 -90t-88 -35q-40 -2 -68 21.5t-28 66.5z" />
<glyph unicode="&#xd0;" horiz-adv-x="1611" d="M2 0l29 164h178l82 467h-158l29 155h157l87 488h-175l29 162h672q153 0 271.5 -45.5t191.5 -125.5t110 -183.5t37 -225.5q0 -127 -33.5 -249.5t-104 -232.5t-170.5 -193t-243.5 -132t-312.5 -49h-676zM389 164h318q127 0 235.5 40t184 106t129 152t79 178t25.5 183 t-27.5 170t-81.5 142.5t-144 100t-206 36.5h-317l-84 -486h305l-29 -155h-305z" />
<glyph unicode="&#xd1;" horiz-adv-x="1726" d="M4 0h528l29 162h-178l164 952l688 -1114h123l223 1270h172l29 164h-527l-28 -164h178l-170 -946l-680 1110h-305l-29 -164h178l-194 -1108h-172zM729 1636q43 98 126 141t171 11q12 -3 58.5 -28.5t58.5 -28.5q31 -17 69 -3t64 60l110 -49q-29 -71 -80 -114t-103.5 -49.5 t-104.5 11.5q-14 3 -60 28t-55 27q-88 30 -143 -63l-109 51z" />
<glyph unicode="&#xd2;" horiz-adv-x="1656" d="M109 588q0 139 41.5 270t119.5 239t184 189.5t243 126.5t288 45q118 0 217 -29t168 -80t120 -121.5t74 -153t29 -174.5t-14 -187q-21 -114 -67.5 -221t-122.5 -202t-172.5 -166t-224.5 -112t-271 -41q-124 0 -226 33.5t-173 91t-119.5 136.5t-71 168.5t-22.5 187.5z M293 618q0 -95 26.5 -178.5t80 -151.5t144 -107.5t208.5 -39.5q136 0 252 49t195 130.5t130 181.5t70 209l4 2q16 73 11.5 144t-20.5 135t-54 119t-89.5 95.5t-126.5 63.5t-166 24q-149 0 -276 -56t-211 -149.5t-131 -215.5t-47 -255zM801 1866v6h207l106 -260l-2 -10h-154z " />
<glyph unicode="&#xd3;" horiz-adv-x="1658" d="M109 588q0 -99 22.5 -189t71 -169t119.5 -136.5t173 -91t226 -33.5q143 0 271 41t224 112t172 166t123.5 201.5t69.5 221.5q12 82 13.5 161.5t-17 153.5t-49 139t-83 119t-117.5 92.5t-153 60t-190 21.5q-151 0 -288 -45t-243 -126.5t-184 -189.5t-119.5 -239t-41.5 -270 zM293 570q-5 70 10 141l-4 -2q19 118 73.5 223t137 185t197.5 126.5t247 46.5q91 0 167 -23t127.5 -63t89.5 -95t54 -119t20.5 -135t-11.5 -144q-16 -87 -51 -169t-92 -155.5t-130 -128.5t-170.5 -87t-207.5 -32q-92 0 -167.5 22.5t-127 62.5t-89 94t-53 118t-20.5 134z M924 1595l2 11l196 262h207v-6l-252 -267h-153z" />
<glyph unicode="&#xd4;" horiz-adv-x="1654" d="M109 588q0 139 41.5 270t119.5 239t184 189.5t243 126.5t288 45q118 0 217 -29t167.5 -80t119.5 -121.5t73.5 -153t28.5 -174.5t-14 -187q-21 -114 -67.5 -221t-122 -202t-171.5 -166t-224 -112t-271 -41q-124 0 -226 33.5t-173 91t-119.5 136.5t-71 168.5t-22.5 187.5z M293 618q0 -95 26.5 -178.5t80 -151.5t144 -107.5t208.5 -39.5q136 0 252 49t195 130.5t130 181.5t70 209l2 2q16 73 11.5 144t-20 135t-53.5 119t-89.5 95.5t-127 63.5t-166.5 24q-149 0 -275.5 -56t-210.5 -149.5t-130.5 -215.5t-46.5 -255zM674 1593l2 13l346 276h106 l248 -276l-2 -13h-174l-147 162l-205 -162h-174z" />
<glyph unicode="&#xd5;" horiz-adv-x="1654" d="M109 588q0 139 41.5 270t119.5 239t184 189.5t243 126.5t288 45q118 0 217 -29t167.5 -80t119.5 -121.5t73.5 -153t28.5 -174.5t-14 -187q-21 -114 -67.5 -221t-122 -202t-171.5 -166t-224 -112t-271 -41q-124 0 -226 33.5t-173 91t-119.5 136.5t-71 168.5t-22.5 187.5z M293 618q0 -95 26.5 -178.5t80 -151.5t144 -107.5t208.5 -39.5q136 0 252 49t195 130.5t130 181.5t70 209l2 2q16 73 11.5 144t-20 135t-53.5 119t-89.5 95.5t-127 63.5t-166.5 24q-149 0 -275.5 -56t-210.5 -149.5t-130.5 -215.5t-46.5 -255zM733 1663q40 93 116 134 t157 11q10 -3 51.5 -26t50.5 -25q31 -15 67.5 -1.5t59.5 59.5l104 -50q-41 -101 -117.5 -138.5t-148.5 -6.5q-11 3 -52.5 28t-53.5 27q-29 15 -66 1t-63 -62l-101 49h-4z" />
<glyph unicode="&#xd6;" horiz-adv-x="1658" d="M109 586q0 -125 36.5 -234t109 -196.5t192.5 -138t274 -50.5q143 0 271 41t224 112t172 166t123.5 201.5t69.5 221.5q12 82 13.5 161.5t-17 153.5t-49 139t-83 119t-117.5 92.5t-153 60t-190 21.5q-151 0 -288 -45t-243 -126.5t-184 -189.5t-119.5 -239t-41.5 -270z M293 568q-5 70 10 141l-4 -2q19 118 73.5 223t137 185t197.5 126.5t247 46.5q91 0 167 -23t127.5 -63t89.5 -95t54 -119t20.5 -135t-11.5 -144q-16 -87 -51 -169t-92 -155.5t-130 -128.5t-170.5 -87t-207.5 -32q-92 0 -167.5 22.5t-127 62.5t-89 94t-53 118t-20.5 134z M700 1679q0 58 38.5 92.5t88.5 34.5q40 0 68.5 -23.5t28.5 -66.5q0 -59 -40 -92t-91 -33q-39 0 -66 23t-27 65zM1167 1677q0 60 40 93.5t91 33.5q38 0 65.5 -23t27.5 -65q0 -58 -41.5 -92.5t-89.5 -34.5q-39 0 -66 23t-27 65z" />
<glyph unicode="&#xd7;" horiz-adv-x="933" d="M94 424l275 233l-189 228l129 106l185 -227l268 227l90 -106l-272 -234l192 -233l-123 -103l-190 234l-273 -234z" />
<glyph unicode="&#xd8;" horiz-adv-x="1656" d="M109 590q0 128 37 253t111 236.5t177 196.5t245 134.5t304 49.5q175 0 305 -65l127 168h180l-188 -244q118 -103 160.5 -263.5t9.5 -342.5q-21 -114 -67.5 -221t-122 -202t-171.5 -166t-224 -112t-271 -41q-167 0 -295 56l-137 -183h-176l194 256v2q-97 79 -147.5 209.5 t-50.5 278.5zM303 713q-24 -135 6.5 -256.5t114.5 -198.5l752 991q-95 45 -220 45q-137 0 -254.5 -49t-197.5 -131.5t-131.5 -185t-69.5 -215.5zM543 178q90 -35 211 -35q125 0 233.5 39.5t185 105.5t131 153t81 181.5t26.5 190.5q0 104 -30 199t-89 155z" />
<glyph unicode="&#xd9;" horiz-adv-x="1662" d="M195 1270l28 164h531l-29 -164h-186l-123 -699q-18 -108 0 -189t66 -135.5t117 -82t153 -27.5q113 0 213 49t174 149.5t98 237.5l123 697h-186l28 164h531l-29 -164h-170l-123 -699q-34 -193 -133.5 -330t-238.5 -202.5t-308 -65.5q-117 0 -216 38t-170.5 110t-101 188.5 t-3.5 261.5l122 699h-167zM774 1796v6h205l108 -260l-2 -10h-153z" />
<glyph unicode="&#xda;" horiz-adv-x="1662" d="M195 1270l28 164h531l-29 -164h-186l-123 -699q-18 -108 0 -189t66 -135.5t117 -82t153 -27.5q113 0 213 49t174 149.5t98 237.5l123 697h-186l28 164h531l-29 -164h-170l-123 -699q-34 -193 -133.5 -330t-238.5 -202.5t-308 -65.5q-117 0 -216 38t-170.5 110t-101 188.5 t-3.5 261.5l122 699h-167zM909 1528l2 10l205 254h215v-6l-262 -258h-160z" />
<glyph unicode="&#xdb;" horiz-adv-x="1662" d="M195 1270l28 164h531l-29 -164h-186l-123 -699q-18 -108 0 -189t66 -135.5t117 -82t153 -27.5q113 0 213 49t174 149.5t98 237.5l123 697h-186l28 164h531l-29 -164h-170l-123 -699q-34 -193 -133.5 -330t-238.5 -202.5t-308 -65.5q-117 0 -216 38t-170.5 110t-101 188.5 t-3.5 261.5l122 699h-167zM639 1554l2 15l344 274h109l245 -274l-2 -15h-174l-147 162l-203 -162h-174z" />
<glyph unicode="&#xdc;" horiz-adv-x="1662" d="M195 1270l28 164h531l-29 -164h-186l-123 -699q-18 -108 0 -189t66 -135.5t117 -82t153 -27.5q113 0 213 49t174 149.5t98 237.5l123 697h-186l28 164h531l-29 -164h-170l-123 -699q-34 -193 -133.5 -330t-238.5 -202.5t-308 -65.5q-117 0 -216 38t-170.5 110t-101 188.5 t-3.5 261.5l122 699h-167zM578 1645q0 60 41 93.5t92 33.5q39 0 64.5 -23.5t25.5 -65.5q0 -59 -40 -93t-91 -34q-39 0 -65.5 24t-26.5 65zM1219 1645q0 58 39.5 92.5t89.5 34.5q39 0 66.5 -24t27.5 -67q0 -59 -40 -92t-91 -33q-39 0 -65.5 23.5t-26.5 65.5z" />
<glyph unicode="&#xdd;" horiz-adv-x="1454" d="M147 1270l29 164h522l-28 -164h-170l235 -518l256 309l183 209h-164l28 164h523l-29 -164h-146l-581 -688l-74 -420h184l-28 -162h-549l29 162h184l74 420l-332 688h-146zM813 1544l2 10l197 261h207v-7l-252 -264h-154z" />
<glyph unicode="&#xde;" horiz-adv-x="1435" d="M-2 0l29 160h178l196 1118h-178l29 158h547l-29 -158h-192l-25 -139h444q228 0 335 -138q87 -112 64 -269.5t-143 -275.5q-150 -149 -381 -157h-24h-442l-25 -139h192l-28 -160h-547zM434 459h443q165 0 267 109q80 87 82 195q1 111 -82 172q-67 48 -173 48h-443z" />
<glyph unicode="&#xdf;" horiz-adv-x="1337" d="M-41 0l27 147h166l159 912q22 129 105.5 222t191.5 135t228 42q112 0 199.5 -33t142.5 -106.5t55 -179.5q0 -126 -77.5 -220t-201.5 -122q89 -21 149 -71.5t85.5 -114t25.5 -138.5q0 -109 -33.5 -197.5t-91 -147t-134.5 -96.5t-163 -50t-177 -3t-177 39l27 154 q109 -45 215 -44.5t184 39.5t126 114t48 172q0 70 -28 122t-77 80.5t-106.5 42t-124.5 13.5h-139l29 155h131q51 0 100 9t98.5 30.5t85 64t46.5 101.5q12 66 -4.5 113t-55.5 71t-84 34.5t-98 10.5q-137 0 -218.5 -64.5t-107.5 -178.5l-184 -1057h-342z" />
<glyph unicode="&#xe0;" horiz-adv-x="1196" d="M20 258q0 94 42.5 165t112.5 110t157 60t180 20.5t178 -13.5t154 -37l16 88q11 64 -4.5 110.5t-53.5 72t-85.5 37t-108.5 12.5q-108 0 -237 -37l-29 -133h-147l36 235q165 82 392 82q96 0 172.5 -19.5t136.5 -62t84.5 -119t5.5 -180.5l-70 -399q-11 -65 2.5 -91.5 t47.5 -23.5t83 13q14 3 21 4l-27 -152q-40 -6 -70.5 -8.5t-68.5 -1.5t-64 11t-48.5 27.5t-31.5 50t-5 77.5q-152 -172 -406 -172q-159 0 -262.5 71t-102.5 203zM193 268q3 -37 25.5 -65t58 -43t74.5 -22t83 -7q134 0 249 84t144 213q-49 28 -129.5 45.5t-169 17t-166.5 -20 t-126 -71.5t-43 -131zM498 1436l2 6h200l97 -244l-2 -10h-150z" />
<glyph unicode="&#xe1;" horiz-adv-x="1196" d="M20 258q0 94 42.5 165t112.5 110t157 60t180 20.5t178 -13.5t154 -37l16 88q11 64 -4.5 110.5t-53.5 72t-85.5 37t-108.5 12.5q-108 0 -237 -37l-29 -133h-147l36 235q165 82 392 82q96 0 172.5 -19.5t136.5 -62t84.5 -119t5.5 -180.5l-70 -399q-11 -65 2.5 -91.5 t47.5 -23.5t83 13q14 3 21 4l-27 -152q-40 -6 -70.5 -8.5t-68.5 -1.5t-64 11t-48.5 27.5t-31.5 50t-5 77.5q-152 -172 -406 -172q-159 0 -262.5 71t-102.5 203zM193 268q3 -37 25.5 -65t58 -43t74.5 -22t83 -7q134 0 249 84t144 213q-49 28 -129.5 45.5t-169 17t-166.5 -20 t-126 -71.5t-43 -131zM567 1188l2 10l183 244h202l-2 -6l-233 -248h-152z" />
<glyph unicode="&#xe2;" horiz-adv-x="1196" d="M20 258q0 94 42.5 165t112.5 110t157 60t180 20.5t178 -13.5t154 -37l16 88q11 64 -4.5 110.5t-53.5 72t-85.5 37t-108.5 12.5q-108 0 -237 -37l-29 -133h-147l36 235q165 82 392 82q96 0 172.5 -19.5t136.5 -62t84.5 -119t5.5 -180.5l-70 -399q-11 -65 2.5 -91.5 t47.5 -23.5t83 13q14 3 21 4l-27 -152q-40 -6 -70.5 -8.5t-68.5 -1.5t-64 11t-48.5 27.5t-31.5 50t-5 77.5q-152 -172 -406 -172q-159 0 -262.5 71t-102.5 203zM193 268q3 -37 25.5 -65t58 -43t74.5 -22t83 -7q134 0 249 84t144 213q-49 28 -129.5 45.5t-169 17t-166.5 -20 t-126 -71.5t-43 -131zM352 1165l2 15l338 270h105l243 -270l-2 -15h-170l-145 156l-199 -156h-172z" />
<glyph unicode="&#xe3;" horiz-adv-x="1196" d="M20 258q0 94 42.5 165t112.5 110t157 60t180 20.5t178 -13.5t154 -37l16 88q11 64 -4.5 110.5t-53.5 72t-85.5 37t-108.5 12.5q-108 0 -237 -37l-29 -133h-147l36 235q165 82 392 82q96 0 172.5 -19.5t136.5 -62t84.5 -119t5.5 -180.5l-70 -399q-11 -65 2.5 -91.5 t47.5 -23.5t83 13q14 3 21 4l-27 -152q-40 -6 -70.5 -8.5t-68.5 -1.5t-64 11t-48.5 27.5t-31.5 50t-5 77.5q-152 -172 -406 -172q-159 0 -262.5 71t-102.5 203zM193 268q3 -37 25.5 -65t58 -43t74.5 -22t83 -7q134 0 249 84t144 213q-49 28 -129.5 45.5t-169 17t-166.5 -20 t-126 -71.5t-43 -131zM385 1251l6 2q38 92 118.5 133.5t162.5 10.5q12 -3 53.5 -27.5t50.5 -26.5q34 -12 67 2t56 58l102 -47q-41 -101 -116 -138t-148 -8q-12 3 -55.5 27.5t-56.5 26.5q-32 16 -72 1t-68 -63z" />
<glyph unicode="&#xe4;" horiz-adv-x="1196" d="M20 258q0 94 42.5 165t112.5 110t157 60t180 20.5t178 -13.5t154 -37l16 88q11 64 -4.5 110.5t-53.5 72t-85.5 37t-108.5 12.5q-108 0 -237 -37l-29 -133h-147l36 235q165 82 392 82q96 0 172.5 -19.5t136.5 -62t84.5 -119t5.5 -180.5l-70 -399q-11 -65 2.5 -91.5 t47.5 -23.5t83 13q14 3 21 4l-27 -152q-40 -6 -70.5 -8.5t-68.5 -1.5t-64 11t-48.5 27.5t-31.5 50t-5 77.5q-152 -172 -406 -172q-159 0 -262.5 71t-102.5 203zM193 268q3 -37 25.5 -65t58 -43t74.5 -22t83 -7q134 0 249 84t144 213q-49 28 -129.5 45.5t-169 17t-166.5 -20 t-126 -71.5t-43 -131zM393 1300q0 60 40.5 93.5t92.5 33.5q39 0 64.5 -23t25.5 -65q0 -59 -40 -93t-91 -34q-39 0 -65.5 23.5t-26.5 64.5zM821 1300q0 59 38 93t91 34q40 0 67 -23.5t27 -66.5q0 -57 -39.5 -91t-89.5 -34q-40 0 -67 22.5t-27 65.5z" />
<glyph unicode="&#xe5;" horiz-adv-x="1196" d="M20 258q0 94 42.5 165t112.5 110t157 60t180 20.5t178 -13.5t154 -37l16 88q11 64 -4.5 110.5t-53.5 72t-85.5 37t-108.5 12.5q-108 0 -237 -37l-29 -133h-147l36 235q165 82 392 82q96 0 172.5 -19.5t136.5 -62t84.5 -119t5.5 -180.5l-70 -399q-11 -65 2.5 -91.5 t47.5 -23.5t83 13q14 3 21 4l-27 -152q-40 -6 -70.5 -8.5t-68.5 -1.5t-64 11t-48.5 27.5t-31.5 50t-5 77.5q-152 -172 -406 -172q-159 0 -262.5 71t-102.5 203zM193 268q3 -37 25.5 -65t58 -43t74.5 -22t83 -7q134 0 249 84t144 213q-49 28 -129.5 45.5t-169 17t-166.5 -20 t-126 -71.5t-43 -131zM481 1323q18 92 96 146.5t171 54.5q80 0 137 -45.5t57 -126.5q0 -103 -79 -162.5t-189 -59.5q-98 0 -154 50.5t-39 142.5zM605 1278q23 -43 89 -43q80 0 117 56q30 46 7 88q-24 44 -93 44h4q-78 0 -115 -56q-31 -47 -9 -89z" />
<glyph unicode="&#xe6;" horiz-adv-x="2084" d="M70 412q0 138 51.5 255t137.5 194.5t197.5 121t233.5 43.5q118 0 212.5 -53t131.5 -148l35 185h131l-31 -174q82 97 190 146.5t228 47.5q107 -1 196 -39t148.5 -112.5t72 -185t-33.5 -255.5h-858q-10 -138 76.5 -220.5t234.5 -82.5q91 0 188 34t156 93l93 -102 q-89 -87 -215.5 -133.5t-251.5 -46.5q-127 0 -215.5 49.5t-128.5 142.5l-35 -172h-129v-6l33 184q-74 -99 -187.5 -152t-226.5 -53q-193 0 -313.5 119t-120.5 320zM238 434q0 -140 85 -224.5t218 -84.5q192 0 320 136q103 110 121 258t-62 245q-84 102 -248 102v-2 q-113 0 -211.5 -52.5t-160.5 -152.5t-62 -225zM1139 575h698l-2 -2q20 145 -58 224.5t-229 79.5q-137 0 -250 -80t-159 -222z" />
<glyph unicode="&#xe7;" horiz-adv-x="1091" d="M72 412q0 152 54 273t144.5 194.5t202.5 112t236 38.5q182 0 338 -94l-54 -260h-149l28 168q-64 35 -188 35q-186 -2 -313 -126t-127 -311q0 -144 90.5 -221.5t228.5 -77.5q77 0 154.5 27.5t136.5 81.5l90 -113q-175 -148 -399 -155l-41 -93q63 1 105.5 -18t59 -50.5 t15.5 -69.5t-18 -79q-25 -61 -75.5 -100.5t-108.5 -51t-117 -4t-107.5 38t-73.5 76.5l92 72q20 -33 72 -55.5t108.5 -14t80.5 59.5q26 56 -24 90.5t-140 5.5l-31 27l82 176q-161 27 -256.5 134t-95.5 284z" />
<glyph unicode="&#xe8;" horiz-adv-x="1206" d="M68 418q0 172 84.5 314t228 222t313.5 80q118 0 209 -36t149.5 -109.5t71 -185.5t-27.5 -263h-856q-10 -138 75.5 -220.5t233.5 -82.5q91 0 188 34t156 93l94 -102h-2q-89 -87 -215.5 -133.5t-251.5 -46.5q-207 0 -328.5 118t-121.5 318zM264 582h697v-2 q20 145 -58.5 224t-230.5 79q-137 0 -249.5 -79.5t-158.5 -221.5zM537 1442l2 4h206l105 -260l-2 -10h-154z" />
<glyph unicode="&#xe9;" horiz-adv-x="1214" d="M68 416q0 -200 121.5 -318t328.5 -118q125 0 251.5 46.5t215.5 133.5l-94 102q-59 -59 -156 -93t-188 -34q-148 0 -233.5 83t-75.5 222h858l-2 -4q57 145 47 256.5t-73 187t-160.5 114t-215.5 38.5q-168 0 -311 -79.5t-228 -222t-85 -314.5zM264 578v2 q46 142 158.5 221.5t249.5 79.5q152 0 230.5 -79t58.5 -224h-697zM614 1178l2 10l197 260h207v-4l-252 -266h-154z" />
<glyph unicode="&#xea;" horiz-adv-x="1206" d="M68 418q0 172 84.5 314t228 222t313.5 80q118 0 209 -36t149.5 -109.5t71 -185.5t-27.5 -263h-856q-10 -138 75.5 -220.5t233.5 -82.5q91 0 188 34t156 93l94 -102h-2q-89 -87 -215.5 -133.5t-251.5 -46.5q-207 0 -328.5 118t-121.5 318zM264 582h697v-2 q20 145 -58.5 224t-230.5 79q-137 0 -249.5 -79.5t-158.5 -221.5zM383 1157l2 14l346 275h107l247 -275l-2 -14h-174l-147 162l-205 -162h-174z" />
<glyph unicode="&#xeb;" horiz-adv-x="1216" d="M68 412q0 -200 121.5 -318.5t328.5 -118.5q124 0 251 47t216 134l-94 104q-59 -59 -156 -93t-188 -34q-148 0 -233.5 82.5t-75.5 220.5h858l-2 -4q57 145 47 256.5t-73 187t-160.5 114t-215.5 38.5q-168 0 -311 -79.5t-228 -222t-85 -314.5zM264 575q46 142 158.5 222 t249.5 80q152 0 230.5 -79t58.5 -223h-697zM434 1315q0 60 40.5 93.5t92.5 33.5q39 0 65.5 -23t26.5 -65q0 -56 -40 -90.5t-89 -36.5q-39 -2 -67.5 22t-28.5 66zM870 1315q0 60 41 93.5t93 33.5q39 0 64.5 -23.5t25.5 -66.5q0 -57 -39.5 -91t-87.5 -34q-40 0 -68.5 23 t-28.5 65z" />
<glyph unicode="&#xec;" horiz-adv-x="598" d="M94 866l27 150h328q-21 -127 -67 -383t-67 -383q-4 -19 -4.5 -34.5t3 -26.5t9 -19.5t15 -13.5t19 -8.5t23 -4t24.5 -0.5t26.5 2.5t26.5 4t26 4.5l-24 -148q-42 -8 -78.5 -11t-72.5 -0.5t-63 13t-50.5 29t-34.5 48t-16 70t6 95.5q18 114 56 325.5t52 290.5h-164zM240 1427 v7h184l57 -265l-2 -10h-143z" />
<glyph unicode="&#xed;" horiz-adv-x="598" d="M94 866l27 150h328q-21 -127 -67 -383t-67 -383q-4 -19 -4.5 -34.5t3 -26.5t9 -19.5t15 -13.5t19 -8.5t23 -4t24.5 -0.5t26.5 2.5t26.5 4t26 4.5l-24 -148q-42 -8 -78.5 -11t-72.5 -0.5t-63 13t-50.5 29t-34.5 48t-16 70t6 95.5q18 114 56 325.5t52 290.5h-164zM287 1159 l2 10l147 265h182v-7l-188 -268h-143z" />
<glyph unicode="&#xee;" horiz-adv-x="598" d="M94 866l27 150h328q-21 -127 -67 -383t-67 -383q-4 -19 -4.5 -34.5t3 -26.5t9 -19.5t15 -13.5t19 -8.5t23 -4t24.5 -0.5t26.5 2.5t26.5 4t26 4.5l-24 -148q-42 -8 -78.5 -11t-72.5 -0.5t-63 13t-50.5 29t-34.5 48t-16 70t6 95.5q18 114 56 325.5t52 290.5h-164zM109 1153 l4 25l266 256h88l172 -258l-4 -23h-143l-97 127l-143 -127h-143z" />
<glyph unicode="&#xef;" horiz-adv-x="598" d="M94 866l27 150h328q-21 -127 -67 -383t-67 -383q-4 -19 -4.5 -34.5t3 -26.5t9 -19.5t15 -13.5t19 -8.5t23 -4t24.5 -0.5t26.5 2.5t26.5 4t26 4.5l-24 -148q-42 -8 -78.5 -11t-72.5 -0.5t-63 13t-50.5 29t-34.5 48t-16 70t6 95.5q18 114 56 325.5t52 290.5h-164zM129 1280 q0 59 40 92t91 33q39 0 66.5 -23t27.5 -65q0 -60 -42 -93.5t-95 -33.5q-36 0 -62 24t-26 66zM453 1280q0 57 39 90t88 35q41 2 69.5 -21t28.5 -67q0 -56 -39 -90.5t-88 -36.5q-41 -2 -69.5 21.5t-28.5 68.5z" />
<glyph unicode="&#xf0;" horiz-adv-x="1243" d="M68 408q0 102 38.5 200.5t108.5 180.5t179 136.5t239 63.5q101 7 198 -25t160 -118q-16 101 -84 184t-149 137l-94 -98l-80 59l88 97q-62 40 -180 69l61 138q132 -33 235 -89l115 123l80 -63l-106 -115q266 -221 266 -608q0 -317 -177.5 -508.5t-457.5 -191.5 q-110 0 -196 35.5t-138 96t-79 136t-27 160.5zM242 430q0 -59 18 -112t53 -95t92.5 -67t131.5 -25q124 0 223.5 62t151 155.5t51.5 194.5q0 126 -78.5 214.5t-222.5 88.5q-95 0 -176 -37t-133.5 -96.5t-81.5 -133.5t-29 -149z" />
<glyph unicode="&#xf1;" horiz-adv-x="1361" d="M90 866l27 150h311l-8 -160q79 98 170 137t209 39q143 0 233.5 -59.5t121 -164.5t5.5 -247q-10 -60 -29 -168.5t-26 -146.5q-5 -21 -5 -37.5t3 -28.5t11.5 -20t16.5 -12.5t22 -6.5t25 -2t28 2t28 4t29 5l-25 -146q-42 -8 -77.5 -11t-71.5 -0.5t-62 13t-49 29t-33.5 48 t-15 70t7.5 95.5q3 20 23.5 135t31.5 176q28 164 -26.5 241t-225.5 77q-141 -2 -244 -90.5t-126 -239.5l-99 -547h-166l154 866h-168zM504 1305q40 93 115.5 134t156.5 11q11 -3 53.5 -27.5t53.5 -27.5q28 -15 63 -2t58 57l102 -47q-41 -101 -117 -139t-147 -7 q-13 3 -55 27.5t-50 26.5q-81 30 -131 -62l-100 49z" />
<glyph unicode="&#xf2;" horiz-adv-x="1230" d="M70 416q0 129 49.5 243.5t133 195.5t197.5 128t240 47q197 0 316.5 -122.5t119.5 -317.5q0 -171 -83 -311t-225.5 -218.5t-313.5 -78.5q-198 0 -316 120t-118 314zM240 440q0 -134 79.5 -217.5t212.5 -83.5q156 0 272 102.5t144 262.5h2q29 160 -52.5 266.5t-233.5 106.5 q-175 0 -299.5 -128t-124.5 -309zM518 1440v6h207l106 -256v-10h-153z" />
<glyph unicode="&#xf3;" horiz-adv-x="1226" d="M70 416q0 -194 119 -314t317 -120q227 0 398 146t212 376h2q40 230 -81 378t-347 148q-126 0 -240 -47t-197.5 -128t-133 -195.5t-49.5 -243.5zM248 504h2q28 161 146 267t272 106q130 0 210 -87.5t80 -224.5q0 -181 -122 -303.5t-301 -122.5q-156 0 -236 102.5 t-51 262.5zM621 1171l2 11l194 252h205l-2 -7l-248 -256h-151z" />
<glyph unicode="&#xf4;" horiz-adv-x="1226" d="M70 416q0 -194 119 -314t317 -120q227 0 398 146t212 376h2q40 230 -81 378t-347 148q-126 0 -240 -47t-197.5 -128t-133 -195.5t-49.5 -243.5zM248 504h2q28 161 146 267t272 106q130 0 210 -87.5t80 -224.5q0 -181 -122 -303.5t-301 -122.5q-156 0 -236 102.5 t-51 262.5zM369 1159l2 15l346 274h106l248 -274l-2 -15h-174l-147 162l-205 -162h-174z" />
<glyph unicode="&#xf5;" horiz-adv-x="1228" d="M68 418q0 129 49.5 243.5t133 195.5t197.5 128t240 47q197 0 316.5 -122.5t119.5 -317.5q0 -171 -83 -311t-225 -218.5t-312 -78.5q-199 0 -317.5 120t-118.5 314zM238 442q0 -134 79.5 -217.5t212.5 -83.5q156 0 272.5 102t145.5 263h2q28 160 -53 266.5t-233 106.5 q-175 0 -300.5 -128t-125.5 -309zM449 1286q39 90 114 130t156 11q12 -3 56 -26.5t54 -24.5q34 -12 66.5 1.5t54.5 56.5l105 -48q-41 -100 -117 -137t-147 -6q-13 3 -55.5 26.5t-49.5 26.5q-88 27 -137 -61l-98 49z" />
<glyph unicode="&#xf6;" horiz-adv-x="1224" d="M68 414q0 -194 119 -314t317 -120q227 0 398 146t212 376h2q40 230 -81 378t-347 148q-126 0 -240 -47t-197.5 -128t-133 -195.5t-49.5 -243.5zM246 502h2q28 161 146 266.5t272 105.5q131 0 210.5 -87t79.5 -224q0 -181 -122.5 -303.5t-301.5 -122.5 q-156 0 -235.5 102.5t-50.5 262.5zM418 1303q0 58 40 92.5t89 34.5q39 0 66.5 -24t27.5 -67q0 -59 -40.5 -92t-90.5 -33q-39 0 -65.5 23.5t-26.5 65.5zM848 1300q0 60 40 93.5t91 33.5q39 0 65.5 -23t26.5 -65q0 -58 -39.5 -92.5t-87.5 -34.5q-41 0 -68.5 23.5t-27.5 64.5z " />
<glyph unicode="&#xf7;" horiz-adv-x="1101" d="M115 592h868l29 166h-869zM393 307q0 60 40 93.5t91 33.5q39 0 65.5 -24t26.5 -66q0 -59 -40 -92t-91 -33q-39 0 -65.5 23t-26.5 65zM514 995q0 57 37.5 91t87.5 36q41 2 69.5 -21.5t28.5 -68.5q0 -59 -40 -92t-89 -33q-39 0 -66.5 23t-27.5 65z" />
<glyph unicode="&#xf8;" horiz-adv-x="1232" d="M41 -121l160 207q-63 54 -97 140.5t-34 189.5q0 129 49.5 243.5t133 195.5t197.5 128t240 47q116 0 201 -43l100 129h164l-154 -198q60 -55 92.5 -141.5t32.5 -186.5q0 -171 -83 -311t-225 -218.5t-312 -78.5q-115 0 -197 36l-106 -139h-162zM242 444q0 -140 71 -211 l475 617l5 2q-62 27 -127 27q-175 0 -299.5 -127.5t-124.5 -307.5zM424 162q50 -21 115 -21q177 0 299.5 122.5t122.5 301.5q0 125 -66 207z" />
<glyph unicode="&#xf9;" horiz-adv-x="1355" d="M70 866l26 150h326l-98 -557q-28 -165 23 -240.5t222 -75.5q105 1 187.5 51t130.5 130.5t67 183.5l62 358h-168l26 150h336l-133 -754q-12 -68 1 -96.5t50.5 -27.5t94.5 14l-23 -152q-44 -8 -83 -11t-81 3.5t-71 24t-46 54.5t-12 91q-88 -94 -176.5 -134t-216.5 -40 q-218 -1 -306.5 123t-49.5 346l69 409h-157zM508 1427v7h205l108 -260l-2 -11h-153z" />
<glyph unicode="&#xfa;" horiz-adv-x="1355" d="M70 866l26 150h326l-98 -557q-28 -165 23 -240.5t222 -75.5q105 1 187.5 51t130.5 130.5t67 183.5l62 358h-168l26 150h336l-133 -754q-12 -68 1 -96.5t50.5 -27.5t94.5 14l-23 -152q-44 -8 -83 -11t-81 3.5t-71 24t-46 54.5t-12 91q-88 -94 -176.5 -134t-216.5 -40 q-218 -1 -306.5 123t-49.5 346l69 409h-157zM629 1163l2 11l196 260h207v-7l-252 -264h-153z" />
<glyph unicode="&#xfb;" horiz-adv-x="1355" d="M70 866l26 150h326l-98 -557q-28 -165 23 -240.5t222 -75.5q105 1 187.5 51t130.5 130.5t67 183.5l62 358h-168l26 150h336l-133 -754q-12 -68 1 -96.5t50.5 -27.5t94.5 14l-23 -152q-44 -8 -83 -11t-81 3.5t-71 24t-46 54.5t-12 91q-88 -94 -176.5 -134t-216.5 -40 q-218 -1 -306.5 123t-49.5 346l69 409h-157zM369 1159l2 15l344 274h108l246 -274l-2 -15h-174l-148 162l-202 -162h-174z" />
<glyph unicode="&#xfc;" horiz-adv-x="1355" d="M70 866l26 150h326l-98 -557q-28 -165 23 -240.5t222 -75.5q105 1 187.5 51t130.5 130.5t67 183.5l62 358h-168l26 150h336l-133 -754q-12 -68 1 -96.5t50.5 -27.5t94.5 14l-23 -152q-44 -8 -83 -11t-81 3.5t-71 24t-46 54.5t-12 91q-88 -94 -176.5 -134t-216.5 -40 q-218 -1 -306.5 123t-49.5 346l69 409h-157zM406 1288q0 58 39.5 92.5t89.5 34.5q39 0 66.5 -23t27.5 -65q0 -59 -40.5 -93t-92.5 -34q-38 0 -64 23.5t-26 64.5zM877 1288q0 60 41 93.5t92 33.5q40 0 65 -23t25 -65q0 -60 -40.5 -94.5t-92.5 -34.5q-39 0 -64.5 23.5 t-25.5 66.5z" />
<glyph unicode="&#xfd;" horiz-adv-x="1257" d="M-61 -416q68 -43 136.5 -58t135 -1.5t128 63t110.5 131.5l673 1145h133l27 150h-475l-27 -150h158l-219 -383l-154 -286l-57 290l-100 381h131l26 148h-461l-26 -150h143l213 -852l-137 -243q-99 -152 -270 -45zM625 1174l2 10l190 252h203v-6l-244 -256h-151z" />
<glyph unicode="&#xfe;" horiz-adv-x="1316" d="M-25 -422l304 1702h-166l24 150h332l-107 -615q71 98 187.5 155.5t238.5 57.5q191 -5 306.5 -116.5t115.5 -309.5q0 -146 -49.5 -265.5t-134 -197.5t-196 -120t-236.5 -42q-114 0 -207.5 54t-132.5 159l-111 -612h-168zM313 444q0 -132 83 -218.5t214 -86.5q85 0 162 29 t136.5 82t94.5 136.5t35 184.5q0 139 -83 216t-216 77q-111 0 -209 -56t-157.5 -153t-59.5 -211z" />
<glyph unicode="&#xff;" horiz-adv-x="1257" d="M-61 -416q68 -43 136.5 -58t135 -1.5t128 63t110.5 131.5l673 1145h133l27 150h-475l-27 -150h158l-219 -383l-154 -286l-57 290l-100 381h131l26 148h-461l-26 -150h143l213 -852l-137 -243q-99 -152 -270 -45zM422 1315q0 60 41 94.5t92 32.5q40 -2 65 -24.5t25 -63.5 q0 -60 -39.5 -93.5t-89.5 -35.5q-39 -2 -66.5 22t-27.5 68zM897 1315q0 60 40 93.5t91 33.5q40 0 66 -23.5t26 -66.5q0 -59 -41 -93t-90 -34q-39 0 -65.5 23t-26.5 67z" />
<glyph unicode="&#x152;" horiz-adv-x="2041" d="M111 586q0 137 36.5 264.5t109.5 237t175.5 190.5t244 127.5t304.5 46.5q71 0 184 -18h891l-67 -381h-158l31 221h-564l-81 -461h565l-29 -162h-565l-84 -483h594l45 219h160l-70 -387h-924v-2q-103 -21 -188 -21q-153 0 -271.5 48t-191.5 132t-110 192.5t-37 236.5z M295.5 571q5.5 -72 22.5 -137t55.5 -120.5t90 -96t126.5 -63.5t164 -23q95 0 184 25l197 1122q-77 27 -179 27q-134 0 -248.5 -47.5t-195 -129t-133.5 -186.5t-74 -225q-15 -74 -9.5 -146z" />
<glyph unicode="&#x153;" horiz-adv-x="2045" d="M68 418q0 129 49.5 243.5t133 196t197.5 129t240 47.5q145 0 246.5 -68.5t136.5 -191.5q72 116 198 188t269 72q159 0 264.5 -64t146 -195.5t-15.5 -332.5q-677 0 -843 -2q-10 -139 73 -221t230 -82q90 0 185.5 34t154.5 93l94 -102h-2q-89 -88 -213.5 -134t-249.5 -46 q-149 0 -252 69t-137 189q-84 -124 -204 -190t-265 -66q-198 0 -317 120t-119 314zM244 502h2q-28 -160 51.5 -262.5t234.5 -102.5q178 0 300 123t122 303q0 137 -80 224t-212 87q-154 0 -271.5 -105.5t-146.5 -266.5zM1112 582h688v-2q20 146 -56 224.5t-228 78.5 q-136 0 -247 -79.5t-157 -221.5z" />
<glyph unicode="&#x178;" horiz-adv-x="1454" d="M147 1270l29 164h522l-28 -164h-170l235 -518l256 309l183 209h-164l28 164h523l-29 -164h-146l-581 -688l-74 -420h184l-28 -162h-549l29 162h184l74 420l-332 688h-146zM510 1630q0 60 40 93.5t91 33.5q39 0 65.5 -23t26.5 -65q0 -56 -39 -90.5t-88 -36.5 q-39 -2 -67.5 22t-28.5 66zM1081 1630q0 60 40 93.5t91 33.5q39 0 66 -24t27 -66q0 -59 -40 -92t-91 -33q-39 0 -66 23t-27 65z" />
<glyph unicode="&#x2c6;" horiz-adv-x="866" d="M266 1159l2 15l344 274h109l246 -274l-2 -15h-174l-148 162l-203 -162h-174z" />
<glyph unicode="&#x2dc;" horiz-adv-x="733" d="M297 1356q40 93 115.5 134t156.5 11q11 -3 53 -27.5t54 -27.5q28 -15 63 -2t58 57l102 -47q-41 -101 -117 -138.5t-147 -6.5q-13 3 -55 27t-50 26q-81 30 -131 -62l-100 50z" />
<glyph unicode="&#x2000;" horiz-adv-x="941" />
<glyph unicode="&#x2001;" horiz-adv-x="1882" />
<glyph unicode="&#x2002;" horiz-adv-x="941" />
<glyph unicode="&#x2003;" horiz-adv-x="1882" />
<glyph unicode="&#x2004;" horiz-adv-x="627" />
<glyph unicode="&#x2005;" horiz-adv-x="470" />
<glyph unicode="&#x2006;" horiz-adv-x="313" />
<glyph unicode="&#x2007;" horiz-adv-x="313" />
<glyph unicode="&#x2008;" horiz-adv-x="235" />
<glyph unicode="&#x2009;" horiz-adv-x="376" />
<glyph unicode="&#x200a;" horiz-adv-x="104" />
<glyph unicode="&#x2010;" horiz-adv-x="1007" d="M121 508l26 160h734l-27 -160h-733z" />
<glyph unicode="&#x2011;" horiz-adv-x="1007" d="M121 508l26 160h734l-27 -160h-733z" />
<glyph unicode="&#x2012;" horiz-adv-x="1007" d="M121 508l26 160h734l-27 -160h-733z" />
<glyph unicode="&#x2013;" horiz-adv-x="1222" d="M121 504l29 158h937l-28 -158h-938z" />
<glyph unicode="&#x2014;" horiz-adv-x="1431" d="M121 504l29 158h1146l-28 -158h-1147z" />
<glyph unicode="&#x2018;" horiz-adv-x="477" d="M182 1044l207 392h137l-164 -392h-180z" />
<glyph unicode="&#x2019;" horiz-adv-x="475" d="M188 1036l168 400h181l-209 -400h-140z" />
<glyph unicode="&#x201a;" horiz-adv-x="671" d="M35 -236l164 398h180l-207 -398h-137z" />
<glyph unicode="&#x201c;" horiz-adv-x="778" d="M180 1034l209 396h137l-166 -396h-180zM477 1034l209 396h139l-168 -396h-180z" />
<glyph unicode="&#x201d;" horiz-adv-x="768" d="M190 1047l166 389h181l-207 -389h-140zM489 1047l164 389h181l-207 -389h-138z" />
<glyph unicode="&#x201e;" horiz-adv-x="968" d="M33 -236l166 398h180l-207 -398h-139zM332 -236l164 398h180l-207 -398h-137z" />
<glyph unicode="&#x2022;" horiz-adv-x="790" d="M158 539q0 113 79.5 187.5t192.5 74.5q85 0 138 -52t53 -137q0 -114 -80 -188t-189 -74v2q-88 0 -141 51t-53 136z" />
<glyph unicode="&#x2026;" horiz-adv-x="1316" d="M35 74q0 60 41 93.5t92 33.5q39 0 65.5 -24t26.5 -66q0 -58 -39.5 -93.5t-87.5 -35.5q-41 0 -69.5 23.5t-28.5 68.5zM463 74q0 60 41 93.5t92 33.5q39 0 65.5 -24t26.5 -66q0 -58 -39.5 -93.5t-87.5 -35.5q-41 0 -69.5 23.5t-28.5 68.5zM885 74q0 60 41 93.5t92 33.5 q39 0 65.5 -24t26.5 -66q0 -58 -39.5 -93.5t-87.5 -35.5q-41 0 -69.5 23.5t-28.5 68.5z" />
<glyph unicode="&#x202f;" horiz-adv-x="376" />
<glyph unicode="&#x2039;" horiz-adv-x="641" d="M88 610l361 451h180l-359 -451l201 -452h-180z" />
<glyph unicode="&#x203a;" horiz-adv-x="643" d="M14 156l361 452l-201 451h180l203 -451l-362 -452h-181z" />
<glyph unicode="&#x205f;" horiz-adv-x="470" />
<glyph unicode="&#x20ac;" d="M160 508l24 141h115v10q0 29 4 51t9.5 38t6.5 20h-114l26 143h138q44 118 115.5 215t169.5 171t228.5 115.5t280.5 41.5q98 0 207 -33l-80 -157q-73 20 -155 20q-211 0 -358 -98t-224 -275h518l-61 -143h-518q-2 -9 -6.5 -29.5t-6.5 -29.5q-6 -42 -6 -54h488l-56 -141 h-424q11 -175 124 -271t329 -96q104 0 205 37l22 -168l2 -6q-128 -41 -258 -41q-155 0 -271.5 38.5t-189 110.5t-109.5 169.5t-42 220.5h-133z" />
<glyph unicode="&#x2122;" horiz-adv-x="1626" d="M240 1315l20 119h571l-20 -119h-217l-82 -465h-139l82 465h-215zM819 850l105 586h143l156 -256l250 256h139l-105 -586h-143l74 385l-238 -246h-29l-145 252l-63 -391h-144z" />
<glyph unicode="&#xe000;" horiz-adv-x="1024" d="M0 0v1024h1024v-1024h-1024z" />
<glyph unicode="&#xfb01;" horiz-adv-x="1245" d="M80 866l24 146h199l12 69q31 173 138 269t270 96q71 0 149 -33l-63 -145q-42 24 -111 24q-178 0 -217 -211l-12 -69h629l-135 -762q-4 -20 -4.5 -35.5t3.5 -27t9 -20t15 -13.5t18.5 -8t23 -3.5t24 0t26.5 3t26 4t26 4.5l-24 -148q-42 -8 -78.5 -11t-72.5 -0.5t-63 13 t-50.5 29t-34.5 48t-16 70t6 95.5l108 616h-461l-151 -866h-166l152 866h-199zM956 1303q0 61 41 95t93 34q39 0 65.5 -24.5t26.5 -66.5q0 -61 -41.5 -95t-93.5 -34q-39 0 -65 24t-26 67z" />
<glyph unicode="&#xfb02;" horiz-adv-x="1245" d="M80 858l24 141h199l14 80q14 76 43.5 137t66.5 102t89 70t102 44.5t113.5 22t115.5 6.5t116.5 -7t108 -14t97.5 -17l-202 -1173q-4 -20 -4.5 -35.5t3.5 -27t9 -20t15.5 -13.5t18.5 -8t23 -3.5t24.5 0t26.5 3t26 4t26 4.5l-25 -148q-42 -8 -78.5 -11t-72.5 -0.5t-63 13 t-50.5 29t-34.5 48t-16 70t6 95.5l182 1040q-41 9 -74.5 14.5t-83 8.5t-89 -1t-84 -18.5t-76 -40t-57 -70t-36.5 -104.5l-14 -80h274l-24 -141h-275l-149 -858h-166l150 858h-199z" />
</font>
</defs>
</svg>
