<?xml version="1.0" encoding="utf-8"?>
<!-- Generator: Adobe Illustrator 21.1.0, SVG Export Plug-In . SVG Version: 6.00 Build 0)  -->
<svg version="1.1" id="Layer_1" xmlns="http://www.w3.org/2000/svg" xmlns:xlink="http://www.w3.org/1999/xlink" x="0px" y="0px"
	 viewBox="0 0 292.5 84.1" style="enable-background:new 0 0 292.5 84.1;" xml:space="preserve">
<style type="text/css">
	.st0{fill:#FFFFFF;}
</style>
<g>
	<g>
		<ellipse transform="matrix(0.707 -0.7072 0.7072 0.707 13.575 52.7394)" class="st0" cx="70.4" cy="10" rx="3.2" ry="3.2"/>
		<path class="st0" d="M22.8,62.1l36-36c-0.7-0.9-1.4-1.7-2.1-2.5c-0.7-0.7-1.5-1.4-2.3-2.1l-36,36c-1.2,1.2-1.2,3.3,0,4.5
			C19.6,63.4,21.6,63.4,22.8,62.1z"/>
		<path class="st0" d="M66,19c1.2-1.2,1.2-3.3,0-4.5c-1.2-1.2-3.2-1.2-4.5,0l-3.2,3.2c-12-9.8-29.7-9-40.8,2.1
			C9.1,28.2,6.6,40.1,9.9,50.6l-5.4,5.4c-1.2,1.2-1.2,3.3,0,4.5c1.2,1.2,3.3,1.2,4.5,0l26.1-26.1c1.2-1.2,1.2-3.3,0-4.5
			c-1.2-1.2-3.2-1.2-4.5,0L16.6,43.8c-1.4-7.8,0.9-16.1,6.9-22.1c9.7-9.7,25.5-9.7,35.2,0c9.7,9.7,9.7,25.5,0,35.2
			c-5.1,5.1-11.9,7.5-18.5,7.3L33,71.4c9.7,1.9,20.1-0.8,27.6-8.3c11.2-11.2,11.9-28.8,2.1-40.8L66,19z"/>
		<path class="st0" d="M42,54c-1.2-1.2-3.2-1.2-4.5,0L20,71.5c-1.2,1.2-1.2,3.3,0,4.5c1.2,1.2,3.3,1.2,4.5,0L42,58.5
			C43.3,57.2,43.3,55.2,42,54z"/>
		<ellipse transform="matrix(0.7072 -0.707 0.707 0.7072 -21.3448 47.3622)" class="st0" cx="46.5" cy="49.5" rx="3.2" ry="3.2"/>
		<ellipse transform="matrix(0.7072 -0.707 0.707 0.7072 -6.3407 35.3756)" class="st0" cx="39.5" cy="25.3" rx="3.2" ry="3.2"/>
	</g>
	<g>
		<path class="st0" d="M133.8,33.9l6.4-6.4c1.2-1.2,1.2-3.2,0-4.5c-0.6-0.6-1.5-0.9-2.3-0.9c-0.6,0-1.1,0.1-1.6,0.5l-0.2,0.2
			c-0.1,0.1-0.2,0.1-0.3,0.2l-1.8,1.8l-0.2,0.2l-13,12.9c-1.3,1.5-2.1,2.9-2.7,4.3c-0.7,1.5-1.1,3.2-1.1,5.1c0,0.2,0,0.3,0,0.5
			c0,0.2,0,0.3,0,0.5c0,8,6.5,14.5,14.5,14.5c8,0,14.4-6.5,14.4-14.5C145.8,40.9,140.6,35,133.8,33.9z M131.3,56.2
			c-4.5,0-8.1-3.6-8.1-8.1c0-4.5,3.6-8.1,8.1-8.1c4.5,0,8.1,3.6,8.1,8.1C139.4,52.6,135.8,56.2,131.3,56.2z"/>
		<path class="st0" d="M167.1,22c-11.2,0-19.2,9.1-19.2,20.2c0,11.2,8.1,20.2,19.2,20.2c11.2,0,19.2-9.1,19.2-20.2
			C186.3,31.1,178.3,22,167.1,22z M167.1,56.1c-7.7,0-12.9-6.2-12.9-13.9c0-7.7,5.2-13.9,12.9-13.9c7.7,0,12.9,6.2,12.9,13.9
			C180,49.9,174.8,56.1,167.1,56.1z"/>
		<path class="st0" d="M207.7,22c-11.2,0-19.2,9.1-19.2,20.2c0,11.2,8.1,20.2,19.2,20.2c11.2,0,19.2-9.1,19.2-20.2
			C226.9,31.1,218.8,22,207.7,22z M207.7,56.1c-7.7,0-12.9-6.2-12.9-13.9c0-7.7,5.2-13.9,12.9-13.9c7.7,0,12.9,6.2,12.9,13.9
			C220.6,49.9,215.3,56.1,207.7,56.1z"/>
		<path class="st0" d="M90.7,60.1c0.3,1,1.3,2.3,3.2,2.3c0,0,18.2,0,18.3,0c1.8,0,3.2-1.4,3.2-3.2c0-1.8-1.4-3.2-3.2-3.2
			c0,0-16,0-16,0c-0.7-5.8,3.7-9,7.2-9.3l1.4-0.2c6-0.8,10.5-6,10.5-12.2c0-6.8-5.5-12.4-12.4-12.4c-5.7,0-10.6,3.9-12,9.2l0,0.1
			c-0.1,0.2-0.1,0.5-0.1,0.7c0,1.7,1.4,3.2,3.2,3.2c1.5,0,2.8-1,3.1-2.4l0-0.1c0.8-2.5,3.1-4.3,5.8-4.3c3.3,0,6.1,2.7,6.1,6.1
			c0,3.1-2.1,5.5-5.1,6l-0.6,0.1c-7.7,0.4-13.6,7-13.6,14C89.8,54.4,89.6,57.2,90.7,60.1z"/>
		<g>
			<path class="st0" d="M255.4,22.1c-1.7,0-3.2,1.4-3.2,3.2v8.9h-16.2v-8.9c0-1.7-1.4-3.2-3.2-3.2c-1.7,0-3.2,1.4-3.2,3.2v34.1
				c0,1.7,1.4,3.2,3.2,3.2c1.7,0,3.2-1.4,3.2-3.2V40.5h16.2v18.8c0,1.7,1.4,3.2,3.2,3.2c1.7,0,3.2-1.4,3.2-3.2V25.2
				C258.6,23.5,257.2,22.1,255.4,22.1z"/>
			<path class="st0" d="M287.4,56.1h-14.8l16.6-16.6c1.2-1.2,1.2-3.2,0-4.5c-0.6-0.6-1.4-0.9-2.2-0.9c0,0,0,0,0,0h-22.2
				c-1.7,0-3.2,1.4-3.2,3.2c0,1.7,1.4,3.1,3.2,3.1h14.5L262.8,57c-1.2,1.2-1.2,3.2,0,4.5c0.5,0.5,1.2,0.8,1.8,0.9c0.1,0,0.2,0,0.4,0
				c0,0,0,0,0,0h22.4c1.7,0,3.2-1.4,3.2-3.2C290.6,57.5,289.2,56.1,287.4,56.1z"/>
		</g>
	</g>
</g>
</svg>
