<?xml version="1.0" encoding="utf-8"?>
<!-- Generator: Adobe Illustrator 23.0.4, SVG Export Plug-In . SVG Version: 6.00 Build 0)  -->
<svg version="1.1" xmlns="http://www.w3.org/2000/svg" xmlns:xlink="http://www.w3.org/1999/xlink" x="0px" y="0px"
	 viewBox="0 0 360 378" style="enable-background:new 0 0 360 378;" xml:space="preserve">
<style type="text/css">
	.st0{fill:#161332;}
	.st1{fill:url(#SVGID_1_);}
	.st2{fill:#E82256;}
	.st3{fill:#303185;}
	.st4{fill:none;stroke:#E82256;stroke-width:0.9652;stroke-miterlimit:10;}
	.st5{fill:#FFFFFF;}
	.st6{font-family:'SourceSansPro-Bold';}
	.st7{font-size:16px;}
	.st8{font-size:14px;}
	.st9{font-family:'SourceSansPro-Regular';}
	.st10{font-size:13px;}
	.st11{fill:url(#SVGID_2_);}
	.st12{font-size:12px;}
</style>
<g id="Layer_2">
	<rect class="st0" width="360" height="378"/>
</g>
<g id="Layer_1">
	<linearGradient id="SVGID_1_" gradientUnits="userSpaceOnUse" x1="44.9314" y1="268.7725" x2="161.6218" y2="152.082">
		<stop  offset="4.294830e-04" style="stop-color:#46489E"/>
		<stop  offset="1" style="stop-color:#EE1F55"/>
	</linearGradient>
	<path class="st1" d="M172,254.9c-0.2-0.1-1.4,0.7-1.7,0.4c-0.2-0.2,0.9-0.7,0.8-0.8c-0.6-0.3-1.4-0.7-2.3-1.2c-0.1,0-0.8,1.2-1,1.2
		c-0.2-0.1,0.3-1.5,0.2-1.5c-1-0.5-1.4-0.8-1.8-1.1c-0.2-0.1-0.2,1.2-0.5,1.1c-0.1-0.1-0.5-1.6-0.7-1.7c-0.1,0-0.1,0-0.2-0.1
		c-0.4-0.2-0.8-0.4-1.2-0.6c3.2,0.5,5.9-0.4,8-2.5c0.6-0.6,1.4-1.6,1.8-3.1c-0.2,0.1-0.6,0.2-1,0.3c-0.5,0.1-0.9,0.3-1.3,0.4
		c-0.2,0.1-0.4,1.5-0.8,1.5c-0.3,0,0.1-1.2-0.1-1.1c-0.7,0.3-1.5,0.6-2.4,0.9c-0.1,0,0.4,1.4,0.3,1.5c-0.2,0.1-0.9-1.2-1-1.2
		c-1.1,0.4-1.5,0.5-2,0.6c-0.2,0.1,0.8,1,0.6,1.1c-0.1,0.1-1.6-0.7-1.8-0.6c-0.1,0-0.1,0-0.2,0.1c-0.4,0.2-0.7,0.3-1,0.5
		c2.6-2.7,3.4-5.7,2.5-8.7c-0.2-0.8-0.7-1.9-1.8-3.1c-0.1,0.2-0.2,0.6-0.3,1c-0.1,0.5-0.2,0.9-0.3,1.3c0,0.2,1.1,1.1,1,1.4
		c-0.1,0.2-1-0.7-1-0.5c-0.1,0.7-0.2,1.5-0.4,2.5c0,0.1,1.5,0.4,1.4,0.5c0,0.2-1.5,0.2-1.5,0.3c-0.2,1.1-0.3,1.6-0.4,2.1
		c0,0.2,1.3-0.2,1.2,0.1c0,0.2-1.4,1-1.5,1.2c0,0.1,0,0.1,0,0.2c-0.1,1-0.1,1.8-0.1,2.4c-2.9-2.6-6.5-6-10.4-10.5
		c-1-1.2-2-2.3-2.8-3.4c0.8-1.3,0.7-3-0.4-4.2c-0.3-0.4-0.8-0.7-1.2-0.9c1.7-1.3,3.2-2.7,3.9-4.7c1-2.9-0.1-6.1-1.1-9.2
		c-0.2-0.7-0.5-1.3-0.7-2c1.5,0.6,4.4,1.4,9,1.3l2,0c3.5,0,6-0.5,7.7-1.1c1.1-0.4,2.2-0.8,2.9-1.4c2.1-1.6,2.3-4,2.3-5.2
		c0-1.2-0.8-1.7-1.5-2.3c-0.6-0.6-1.3-0.3-1.3-0.3l-5,2.1l-0.5,3.4l0,0c0,0-1.4,1-5.1,1.1l-1,0c-3.7,0-5.2-1-5.2-1l-0.6-3.5
		l-3.6-1.4c0.2-0.7,0.5-1.4,0.8-2.1c1.1-3,2.3-6,1.4-8.9c-0.8-2.5-2.9-4.2-5.2-5.8c0.7-0.2,1.4-0.6,2-1.2c1-1.2,1.1-2.9,0.4-4.2
		c0.8-1.1,1.8-2.2,2.8-3.4c3.8-4.4,7.5-7.9,10.4-10.5c0,0.6,0,1.4,0.1,2.4c0,0.1,0,0.1,0,0.2c0,0.2,1.4,1.1,1.5,1.2
		c0,0.3-1.3-0.1-1.2,0.1c0.1,0.5,0.3,0.9,0.4,2.1c0,0.1,1.5,0.1,1.5,0.3c0,0.1-1.5,0.5-1.4,0.5c0.2,1,0.3,1.9,0.4,2.5
		c0,0.2,0.9-0.7,1-0.5c0.1,0.3-1,1.2-1,1.4c0.1,0.4,0.2,0.8,0.3,1.3c0.1,0.4,0.2,0.8,0.3,1c1.1-1.2,1.6-2.4,1.8-3.1
		c0.9-3,0.2-6.1-2.5-8.7c0.3,0.1,0.6,0.3,1,0.5c0.1,0,0.1,0,0.2,0.1c0.2,0.1,1.7-0.7,1.8-0.6c0.2,0.1-0.8,1-0.6,1.1
		c0.5,0.1,0.9,0.2,2,0.6c0.1,0,0.9-1.2,1-1.2c0.1,0.1-0.3,1.5-0.3,1.5c1,0.4,1.8,0.7,2.4,0.9c0.2,0.1-0.2-1.1,0.1-1.1
		c0.4,0,0.6,1.5,0.8,1.5c0.4,0.1,0.8,0.3,1.3,0.4c0.4,0.1,0.8,0.2,1,0.3c-0.5-1.6-1.3-2.6-1.8-3.1c-2-2.1-4.7-3-8-2.5
		c0.4-0.2,0.8-0.4,1.2-0.6c0.1,0,0.1,0,0.2-0.1c0.2-0.1,0.6-1.7,0.7-1.7c0.3-0.1,0.3,1.2,0.5,1.1c0.4-0.3,0.8-0.5,1.8-1.1
		c0.1,0-0.4-1.5-0.2-1.5c0.1-0.1,0.9,1.2,1,1.2c0.9-0.5,1.7-0.9,2.3-1.2c0.2-0.1-1-0.6-0.8-0.8c0.3-0.2,1.5,0.5,1.7,0.4
		c0.4-0.2,0.7-0.4,1.2-0.7c0.4-0.2,0.7-0.4,0.9-0.6c-1.5-0.7-2.8-0.7-3.6-0.7c-2.7,0.1-5.4,1.5-7.2,3.9c0.2-0.6,0.5-1.9,0.2-3.4
		c-0.8-3.8-3.6-5.5-4-5.7c0,0.6,0,1.4,0.1,2.4c0,0.1,0,0.1,0,0.2c0,0.2,1.4,1.1,1.5,1.2c0,0.3-1.3-0.1-1.2,0.1
		c0.1,0.5,0.3,0.9,0.4,2.1c0,0.1,1.5,0.1,1.5,0.3c0,0.1-1.5,0.5-1.4,0.5c0.2,1,0.3,1.9,0.4,2.5c0,0.2,0.9-0.7,1-0.5
		c0.1,0.3-1,1.2-1,1.4c0.1,0.3,0.1,0.6,0.2,1c-0.4-0.9-0.9-1.5-1.4-1.9c-1.4-1.4-2.8-1.9-3.1-2.1c-2-0.7-3.7-0.4-4.4-0.2
		c-0.9,0.3-1.7,0.5-2.6,0.8c0.5,0.3,1.2,0.7,2.2,1.1c0.1,0,0.1,0,0.2,0.1c0.2,0.1,1.7-0.7,1.8-0.6c0.2,0.1-0.8,1-0.6,1.1
		c0.5,0.1,0.9,0.2,2,0.6c0.1,0,0.9-1.2,1-1.2c0.1,0.1-0.3,1.5-0.3,1.5c1,0.4,1.8,0.7,2.4,0.9c0.2,0.1-0.2-1.1,0.1-1.1
		c0.4,0,0.6,1.5,0.8,1.5c0.4,0.1,0.8,0.3,1.3,0.4c0.3,0.1,0.5,0.1,0.7,0.2c-0.8,0.5-1.7,1.1-2.6,1.7c-4.9,3.4-9,7.2-12.2,10.5
		c-1.4-0.4-2.9,0-3.9,1.1c-0.6,0.7-0.9,1.6-0.9,2.5c-0.6-0.5-1.1-1-1.5-1.6c-1.1-1.5-1.7-3.6-2.3-5.8c-0.9-3.1-1.8-6.3-4.2-8.1
		c-0.4-0.3-0.7-0.5-1.1-0.7c1.3-1.1,3.1-3.1,5-6.5l1-1.7c1.7-3,2.5-5.4,2.9-7.1c0.2-1.2,0.3-2.3,0.2-3.2c-0.4-2.6-2.4-3.9-3.4-4.5
		c-1-0.6-1.9-0.1-2.8,0.1c-0.9,0.2-0.9,1-0.9,1l-0.7,5.3l2.8,2.1l0,0c0,0,0.2,1.7-1.6,4.9l-0.5,0.9c-1.8,3.2-3.4,3.9-3.4,3.9
		l-3.3-1.2l-4.2,3.3c0,0-0.6,0.4-0.4,1.3c0,0.1,0.1,0.2,0.1,0.3c-1.8,0-3.5-0.1-5-0.6c-1.9-0.6-3.8-2.1-5.6-3.5
		c-2.1-1.6-4.3-3.3-6.7-3.8c-0.4-0.4-0.9-0.8-1.5-0.9c-0.1-1.3-0.1-2.8-0.1-4.4c0-5.8,0.4-10.8,0.9-14.6c0.4,0.4,0.9,1,1.7,1.7
		c0,0,0.1,0.1,0.1,0.1c0.2,0.2,1.8-0.1,1.9,0c0.2,0.2-1.1,0.7-0.9,0.8c0.4,0.3,0.8,0.5,1.7,1.3c0.1,0.1,1.2-0.9,1.4-0.8
		c0.1,0.1-0.8,1.3-0.7,1.3c0.8,0.7,1.5,1.2,2,1.7c0.1,0.1,0.2-1.1,0.5-1c0.3,0.2,0,1.6,0.2,1.7c0.3,0.3,0.7,0.5,1.1,0.8
		c0.4,0.3,0.7,0.5,0.9,0.6c0.1-1.6-0.3-2.8-0.7-3.6c-1.3-2.9-3.9-4.7-7.7-5.1c0.3-0.1,0.7-0.2,1-0.3c0.1,0,0.1,0,0.2,0
		c0.2-0.1,0.8-1.6,0.9-1.6c0.3-0.1,0.1,1.3,0.3,1.2c0.5-0.2,0.9-0.4,2-0.8c0.1,0-0.2-1.5,0-1.5c0.1,0,0.7,1.3,0.8,1.3
		c1-0.3,1.8-0.6,2.5-0.9c0.2-0.1-0.9-0.7-0.7-0.9c0.3-0.2,1.4,0.7,1.6,0.7c0.4-0.1,0.8-0.3,1.3-0.5c0.4-0.2,0.7-0.3,1-0.4
		c-1.4-0.9-2.7-1.1-3.5-1.2c-2.9-0.3-5.6,0.8-7.7,3.2c0.2-0.4,0.3-0.8,0.5-1.2c0-0.1,0.1-0.1,0.1-0.2c0.1-0.2-0.7-1.6-0.6-1.8
		c0.1-0.2,1,0.8,1.1,0.6c0.2-0.5,0.3-0.9,0.7-2c0-0.1-1.3-0.9-1.2-1c0.1-0.1,1.5,0.3,1.5,0.3c0.4-0.9,0.7-1.8,1-2.4
		c0.1-0.2-1.1,0.1-1.1-0.1c0-0.3,1.5-0.5,1.6-0.7c0.1-0.4,0.3-0.8,0.4-1.3c0.1-0.4,0.2-0.8,0.3-1c-1.6,0.5-2.6,1.2-3.2,1.8
		c-2,1.9-3.1,4.6-2.9,7.6c-0.3-0.6-0.9-1.8-2.2-2.7c-3.2-2.4-6.4-1.9-6.8-1.8c0.4,0.4,0.9,1.1,1.7,1.8c0,0,0.1,0.1,0.1,0.1
		c0.2,0.2,1.8-0.1,1.9,0c0.2,0.2-1.1,0.7-0.9,0.8c0.4,0.3,0.8,0.5,1.7,1.3c0.1,0.1,1.2-0.9,1.4-0.8c0.1,0.1-0.8,1.3-0.7,1.3
		c0.8,0.7,1.5,1.2,2,1.7c0.1,0.1,0.2-1.1,0.5-1c0.3,0.2,0,1.6,0.2,1.7c0.2,0.2,0.5,0.4,0.8,0.6c-0.9-0.4-1.7-0.5-2.3-0.6
		c-1.9-0.2-3.4,0.3-3.8,0.4c-2,0.7-3.1,2-3.5,2.6c-0.5,0.7-1,1.5-1.5,2.2c0.6-0.1,1.4-0.3,2.4-0.6c0.1,0,0.1,0,0.2,0
		c0.2-0.1,0.8-1.6,0.9-1.6c0.3-0.1,0.1,1.3,0.3,1.2c0.5-0.2,0.9-0.4,2-0.8c0.1,0-0.2-1.5,0-1.5c0.1,0,0.7,1.3,0.8,1.3
		c1-0.3,1.8-0.6,2.5-0.9c0.2-0.1-0.9-0.7-0.7-0.9c0.3-0.2,1.4,0.7,1.6,0.7c0.4-0.1,0.8-0.3,1.3-0.5c0.3-0.1,0.5-0.2,0.7-0.3
		c-0.3,0.9-0.6,1.9-0.8,3c-1.4,5.7-2.1,11.2-2.3,15.8c-0.9,0.4-1.6,1.1-2,2.1c-1.3,0.7-2.5,1.6-3.7,2.5c-1.9,1.4-3.6,2.6-5.4,3.2
		c-1.7,0.5-3.9,0.5-6,0.4c0.2-0.8-0.4-1.2-0.4-1.2l-4.3-3.2l-3.3,1.3l0,0c0,0-1.6-0.7-3.5-3.8l-0.5-0.9c-1.9-3.1-1.7-4.9-1.7-4.9
		l2.8-2.2l-0.8-5.3c0,0-0.1-0.7-0.9-1c-0.9-0.2-1.8-0.6-2.8,0c-1,0.6-3,2-3.3,4.6c-0.1,0.5-0.1,1,0,1.5c0.2,1.5,0.9,4.4,3.4,8.6
		l1,1.7c1.8,3,3.5,4.9,4.8,6c0,0,0.1,0.1,0.1,0.1c-2.4,1.7-3.4,4.8-4.4,7.8c-0.7,2.1-1.4,4.3-2.6,5.8c-1,1.3-2.6,2.4-4.4,3.6
		c-0.1-0.7-0.4-1.3-0.9-1.9c-1-1.1-2.5-1.5-3.9-1.1c-3.3-3.4-7.3-7.1-12.2-10.5c-0.9-0.6-1.8-1.2-2.6-1.7c0.2-0.1,0.4-0.1,0.7-0.2
		c0.5-0.1,0.9-0.3,1.3-0.4c0.2-0.1,0.4-1.5,0.8-1.5c0.3,0-0.1,1.2,0.1,1.1c0.7-0.3,1.5-0.6,2.4-0.9c0.1,0-0.4-1.4-0.3-1.5
		c0.2-0.1,0.9,1.2,1,1.2c1.1-0.4,1.5-0.5,2-0.6c0.2-0.1-0.8-1-0.6-1.1c0.1-0.1,1.6,0.7,1.8,0.6c0.1,0,0.1,0,0.2-0.1
		c1-0.4,1.7-0.8,2.2-1.1c-0.9-0.3-1.7-0.5-2.6-0.8c-0.7-0.2-2.5-0.4-4.4,0.2c-0.4,0.1-1.8,0.7-3.1,2.1c-0.4,0.4-0.9,1-1.4,1.9
		c0.1-0.3,0.1-0.7,0.2-1c0-0.2-1.1-1.1-1-1.4c0.1-0.2,1,0.7,1,0.5c0.1-0.7,0.2-1.5,0.4-2.5c0-0.1-1.5-0.4-1.4-0.5
		c0-0.2,1.5-0.2,1.5-0.3c0.2-1.1,0.3-1.6,0.4-2.1c0-0.2-1.3,0.2-1.2-0.1c0-0.2,1.4-1,1.5-1.2c0-0.1,0-0.1,0-0.2
		c0.1-1,0.1-1.9,0.1-2.4c-0.4,0.2-3.1,1.9-4,5.7c-0.3,1.5,0,2.8,0.2,3.4c-1.8-2.5-4.5-3.8-7.2-3.9c-0.8,0-2.1,0-3.6,0.7
		c0.2,0.1,0.5,0.3,0.9,0.6c0.4,0.3,0.8,0.5,1.2,0.7c0.2,0.1,1.4-0.7,1.7-0.4c0.2,0.2-0.9,0.7-0.8,0.8c0.6,0.3,1.4,0.7,2.3,1.2
		c0.1,0,0.8-1.2,1-1.2c0.2,0.1-0.3,1.5-0.2,1.5c1,0.5,1.4,0.8,1.8,1.1c0.2,0.1,0.2-1.2,0.5-1.1c0.1,0.1,0.5,1.6,0.7,1.7
		c0.1,0,0.1,0,0.2,0.1c0.4,0.2,0.8,0.4,1.2,0.6c-3.2-0.5-5.9,0.4-8,2.5c-0.6,0.6-1.4,1.6-1.8,3.1c0.2-0.1,0.6-0.2,1-0.3
		c0.5-0.1,0.9-0.3,1.3-0.4c0.2-0.1,0.4-1.5,0.8-1.5c0.3,0-0.1,1.2,0.1,1.1c0.7-0.3,1.5-0.6,2.4-0.9c0.1,0-0.4-1.4-0.3-1.5
		c0.2-0.1,0.9,1.2,1,1.2c1.1-0.4,1.5-0.5,2-0.6c0.2-0.1-0.8-1-0.6-1.1c0.1-0.1,1.6,0.7,1.8,0.6c0.1,0,0.1,0,0.2-0.1
		c0.4-0.2,0.7-0.3,1-0.5c-2.6,2.7-3.4,5.7-2.5,8.7c0.2,0.8,0.7,1.9,1.8,3.1c0.1-0.2,0.2-0.6,0.3-1c0.1-0.5,0.2-0.9,0.3-1.3
		c0-0.2-1.1-1.1-1-1.4c0.1-0.2,1,0.7,1,0.5c0.1-0.7,0.2-1.5,0.4-2.5c0-0.1-1.5-0.4-1.4-0.5c0-0.2,1.5-0.2,1.5-0.3
		c0.2-1.1,0.3-1.6,0.4-2.1c0-0.2-1.3,0.2-1.2-0.1c0-0.2,1.4-1,1.5-1.2c0-0.1,0-0.1,0-0.2c0.1-1,0.1-1.8,0.1-2.4
		c2.9,2.6,6.5,6,10.4,10.5c1,1.2,2,2.3,2.8,3.4c-0.8,1.3-0.7,3,0.4,4.2c0.4,0.4,0.9,0.8,1.4,1c-0.9,0.9-1.6,1.9-2,3.1
		c-1,2.9,0.1,6.1,1.1,9.2c0.3,1,0.7,1.9,0.9,2.8l-4,1.6l-0.5,3.4l0,0c0,0-1.4,1-5.1,1.1l-1,0c-3.7,0-5.2-1-5.2-1l-0.6-3.5l-5-1.9
		c0,0-0.7-0.3-1.3,0.3c-0.6,0.6-1.4,1.2-1.4,2.4c0,1.2,0.3,3.5,2.4,5.1c0.4,0.3,0.8,0.5,1.3,0.8c1.4,0.6,4.3,1.5,9.3,1.4l2,0
		c3.5,0,6-0.5,7.7-1.1c0.2-0.1,0.3-0.1,0.5-0.2c-0.1,0.3-0.2,0.5-0.3,0.8c-1.1,3-2.3,6-1.4,8.9c0.8,2.5,3,4.3,5.3,5.9
		c-1.1-0.1-2.2,0.4-3,1.2c-1,1.2-1.1,2.9-0.4,4.2c-0.8,1.1-1.8,2.2-2.8,3.4c-3.8,4.4-7.5,7.9-10.4,10.5c0-0.6,0-1.4-0.1-2.4
		c0-0.1,0-0.1,0-0.2c0-0.2-1.4-1.1-1.5-1.2c0-0.3,1.3,0.1,1.2-0.1c-0.1-0.5-0.3-0.9-0.4-2.1c0-0.1-1.5-0.1-1.5-0.3
		c0-0.1,1.5-0.5,1.4-0.5c-0.2-1-0.3-1.9-0.4-2.5c0-0.2-0.9,0.7-1,0.5c-0.1-0.3,1-1.2,1-1.4c-0.1-0.4-0.2-0.8-0.3-1.3
		c-0.1-0.4-0.2-0.8-0.3-1c-1.1,1.2-1.6,2.4-1.8,3.1c-0.9,3-0.2,6.1,2.5,8.7c-0.3-0.1-0.6-0.3-1-0.5c-0.1,0-0.1,0-0.2-0.1
		c-0.2-0.1-1.7,0.7-1.8,0.6c-0.2-0.1,0.8-1,0.6-1.1c-0.5-0.1-0.9-0.2-2-0.6c-0.1,0-0.9,1.2-1,1.2c-0.1-0.1,0.3-1.5,0.3-1.5
		c-1-0.4-1.8-0.7-2.4-0.9c-0.2-0.1,0.2,1.1-0.1,1.1c-0.4,0-0.6-1.5-0.8-1.5c-0.4-0.1-0.8-0.3-1.3-0.4c-0.4-0.1-0.8-0.2-1-0.3
		c0.5,1.6,1.3,2.6,1.8,3.1c2,2.1,4.7,3,8,2.5c-0.4,0.2-0.8,0.4-1.2,0.6c-0.1,0-0.1,0-0.2,0.1c-0.2,0.1-0.6,1.7-0.7,1.7
		c-0.3,0.1-0.3-1.2-0.5-1.1c-0.4,0.3-0.8,0.5-1.8,1.1c-0.1,0,0.4,1.5,0.2,1.5c-0.1,0.1-0.9-1.2-1-1.2c-0.9,0.5-1.7,0.9-2.3,1.2
		c-0.2,0.1,1,0.6,0.8,0.8c-0.3,0.2-1.5-0.5-1.7-0.4c-0.4,0.2-0.7,0.4-1.2,0.7c-0.4,0.2-0.7,0.4-0.9,0.6c1.5,0.7,2.8,0.7,3.6,0.7
		c2.7-0.1,5.4-1.5,7.2-3.9c-0.2,0.6-0.5,1.9-0.2,3.4c0.8,3.8,3.6,5.5,4,5.7c0-0.6,0-1.4-0.1-2.4c0-0.1,0-0.1,0-0.2
		c0-0.2-1.4-1.1-1.5-1.2c0-0.3,1.3,0.1,1.2-0.1c-0.1-0.5-0.3-0.9-0.4-2.1c0-0.1-1.5-0.1-1.5-0.3c0-0.1,1.5-0.5,1.4-0.5
		c-0.2-1-0.3-1.9-0.4-2.5c0-0.2-0.9,0.7-1,0.5c-0.1-0.3,1-1.2,1-1.4c-0.1-0.3-0.1-0.6-0.2-1c0.4,0.9,0.9,1.5,1.4,1.9
		c1.4,1.4,2.8,1.9,3.1,2.1c2,0.7,3.7,0.4,4.4,0.2c0.9-0.3,1.7-0.5,2.6-0.8c-0.5-0.3-1.2-0.7-2.2-1.1c-0.1,0-0.1,0-0.2-0.1
		c-0.2-0.1-1.7,0.7-1.8,0.6c-0.2-0.1,0.8-1,0.6-1.1c-0.5-0.1-0.9-0.2-2-0.6c-0.1,0-0.9,1.2-1,1.2c-0.1-0.1,0.3-1.5,0.3-1.5
		c-1-0.4-1.8-0.7-2.4-0.9c-0.2-0.1,0.2,1.1-0.1,1.1c-0.4,0-0.6-1.5-0.8-1.5c-0.4-0.1-0.8-0.3-1.3-0.4c-0.3-0.1-0.5-0.1-0.7-0.2
		c0.8-0.5,1.7-1.1,2.6-1.7c4.9-3.4,9-7.2,12.2-10.5c1.4,0.4,2.9,0,3.9-1.1c0.9-1,1.1-2.4,0.7-3.6c1,0.8,1.9,1.6,2.6,2.5
		c1.1,1.5,1.7,3.6,2.3,5.8c0.9,3.1,1.8,6.3,4.2,8.1c0.4,0.3,0.8,0.5,1.3,0.7l-0.6,4.6l2.8,2.1l0,0c0,0,0.2,1.7-1.6,4.9l-0.5,0.9
		c-1.8,3.2-3.4,3.9-3.4,3.9l-3.3-1.2l-4.2,3.3c0,0-0.6,0.4-0.4,1.3c0.2,0.9,0.3,1.8,1.4,2.4c1,0.6,3.3,1.6,5.7,0.5
		c0.4-0.2,0.9-0.4,1.3-0.8c1.2-0.9,3.5-2.9,5.9-7.2l1-1.7c1.7-3,2.5-5.4,2.9-7.1c0.2-1.2,0.3-2.3,0.2-3.2c-0.1-0.7-0.3-1.3-0.6-1.8
		c0.3,0,0.6,0,0.9,0c2.3,0,4.7,0,6.6,0.6c1.9,0.6,3.8,2.1,5.6,3.5c1.6,1.2,3.2,2.5,5,3.3c0,0,0,0,0,0c0,1.6,1,2.9,2.5,3.4
		c0.1,1.3,0.1,2.8,0.1,4.4c0,5.8-0.4,10.8-0.9,14.6c-0.4-0.4-0.9-1-1.7-1.7c0,0-0.1-0.1-0.1-0.1c-0.2-0.2-1.8,0.1-1.9,0
		c-0.2-0.2,1.1-0.7,0.9-0.8c-0.4-0.3-0.8-0.5-1.7-1.3c-0.1-0.1-1.2,0.9-1.4,0.8c-0.1-0.1,0.8-1.3,0.7-1.3c-0.8-0.7-1.5-1.2-2-1.7
		c-0.1-0.1-0.2,1.1-0.5,1c-0.3-0.2,0-1.6-0.2-1.7c-0.3-0.3-0.7-0.5-1.1-0.8c-0.4-0.3-0.7-0.5-0.9-0.6c-0.1,1.6,0.3,2.8,0.7,3.6
		c1.3,2.9,3.9,4.7,7.7,5.1c-0.3,0.1-0.7,0.2-1,0.3c-0.1,0-0.1,0-0.2,0c-0.2,0.1-0.8,1.6-0.9,1.6c-0.3,0.1-0.1-1.3-0.3-1.2
		c-0.5,0.2-0.9,0.4-2,0.8c-0.1,0,0.2,1.5,0,1.5c-0.1,0-0.7-1.3-0.8-1.3c-1,0.3-1.8,0.6-2.5,0.9c-0.2,0.1,0.9,0.7,0.7,0.9
		c-0.3,0.2-1.4-0.7-1.6-0.7c-0.4,0.1-0.8,0.3-1.3,0.5c-0.4,0.2-0.7,0.3-1,0.4c1.4,0.9,2.7,1.1,3.5,1.2c2.9,0.3,5.6-0.8,7.7-3.2
		c-0.2,0.4-0.3,0.8-0.5,1.2c0,0.1-0.1,0.1-0.1,0.2c-0.1,0.2,0.7,1.6,0.6,1.8c-0.1,0.2-1-0.8-1.1-0.6c-0.2,0.5-0.3,0.9-0.7,2
		c0,0.1,1.3,0.9,1.2,1c-0.1,0.1-1.5-0.3-1.5-0.3c-0.4,0.9-0.7,1.8-1,2.4c-0.1,0.2,1.1-0.1,1.1,0.1c0,0.3-1.5,0.5-1.6,0.7
		c-0.1,0.4-0.3,0.8-0.4,1.3c-0.1,0.4-0.2,0.8-0.3,1c1.6-0.5,2.6-1.2,3.2-1.8c2-1.9,3.1-4.6,2.9-7.6c0.3,0.6,0.9,1.8,2.2,2.7
		c3.2,2.4,6.4,1.9,6.8,1.8c-0.4-0.4-0.9-1.1-1.7-1.8c0,0-0.1-0.1-0.1-0.1c-0.2-0.2-1.8,0.1-1.9,0c-0.2-0.2,1.1-0.7,0.9-0.8
		c-0.4-0.3-0.8-0.5-1.7-1.3c-0.1-0.1-1.2,0.9-1.4,0.8c-0.1-0.1,0.8-1.3,0.7-1.3c-0.8-0.7-1.5-1.2-2-1.7c-0.1-0.1-0.2,1.1-0.5,1
		c-0.3-0.2,0-1.6-0.2-1.7c-0.2-0.2-0.5-0.4-0.8-0.6c0.9,0.4,1.7,0.5,2.3,0.6c1.9,0.2,3.4-0.3,3.8-0.4c2-0.7,3.1-2,3.5-2.6
		c0.5-0.7,1-1.5,1.5-2.2c-0.6,0.1-1.4,0.3-2.4,0.6c-0.1,0-0.1,0-0.2,0c-0.2,0.1-0.8,1.6-0.9,1.6c-0.3,0.1-0.1-1.3-0.3-1.2
		c-0.5,0.2-0.9,0.4-2,0.8c-0.1,0,0.2,1.5,0,1.5c-0.1,0-0.7-1.3-0.8-1.3c-1,0.3-1.8,0.6-2.5,0.9c-0.2,0.1,0.9,0.7,0.7,0.9
		c-0.3,0.2-1.4-0.7-1.6-0.7c-0.4,0.1-0.8,0.3-1.3,0.5c-0.3,0.1-0.5,0.2-0.7,0.3c0.3-0.9,0.6-1.9,0.8-3c1.4-5.7,2.1-11.2,2.3-15.8
		c1.3-0.6,2.2-1.8,2.2-3.3c0-0.1,0-0.3,0-0.4c1.4-0.7,2.8-1.7,4.2-2.7c1.9-1.4,3.6-2.6,5.4-3.2c1.9-0.6,4.2-0.5,6.4-0.4
		c0.7,0,1.3,0.1,2,0.1c-0.2,0.4-0.3,0.8-0.3,1.3c-0.1,0.5-0.1,1,0,1.5c0.2,1.5,0.9,4.4,3.4,8.6l1,1.7c1.8,3,3.5,4.9,4.8,6
		c0.9,0.8,1.8,1.4,2.7,1.8c2.5,1,4.7-0.1,5.7-0.7c1-0.6,1.1-1.6,1.3-2.4c0.2-0.9-0.4-1.3-0.4-1.3l-4.3-3.2l-3.3,1.3l0,0
		c0,0-1.6-0.7-3.5-3.8l-0.5-0.9c-1.9-3.1-1.7-4.9-1.7-4.9l2.8-2.2l-0.7-4.3c0.1-0.1,0.2-0.1,0.2-0.2c2.5-1.7,3.5-4.8,4.5-7.8
		c0.7-2.1,1.4-4.3,2.6-5.8c0.6-0.8,1.4-1.5,2.3-2.2c0.1,0.7,0.3,1.4,0.9,2c1,1.1,2.5,1.5,3.9,1.1c3.3,3.4,7.3,7.1,12.2,10.5
		c0.9,0.6,1.8,1.2,2.6,1.7c-0.2,0.1-0.4,0.1-0.7,0.2c-0.5,0.1-0.9,0.3-1.3,0.4c-0.2,0.1-0.4,1.5-0.8,1.5c-0.3,0,0.1-1.2-0.1-1.1
		c-0.7,0.3-1.5,0.6-2.4,0.9c-0.1,0,0.4,1.4,0.3,1.5c-0.2,0.1-0.9-1.2-1-1.2c-1.1,0.4-1.5,0.5-2,0.6c-0.2,0.1,0.8,1,0.6,1.1
		c-0.1,0.1-1.6-0.7-1.8-0.6c-0.1,0-0.1,0-0.2,0.1c-1,0.4-1.7,0.8-2.2,1.1c0.9,0.3,1.7,0.5,2.6,0.8c0.7,0.2,2.5,0.4,4.4-0.2
		c0.4-0.1,1.8-0.7,3.1-2.1c0.4-0.4,0.9-1,1.4-1.9c-0.1,0.3-0.1,0.7-0.2,1c0,0.2,1.1,1.1,1,1.4c-0.1,0.2-1-0.7-1-0.5
		c-0.1,0.7-0.2,1.5-0.4,2.5c0,0.1,1.5,0.4,1.4,0.5c0,0.2-1.5,0.2-1.5,0.3c-0.2,1.1-0.3,1.6-0.4,2.1c0,0.2,1.3-0.2,1.2,0.1
		c0,0.2-1.4,1-1.5,1.2c0,0.1,0,0.1,0,0.2c-0.1,1-0.1,1.9-0.1,2.4c0.4-0.2,3.1-1.9,4-5.7c0.3-1.5,0-2.8-0.2-3.4
		c1.8,2.5,4.5,3.8,7.2,3.9c0.8,0,2.1,0,3.6-0.7c-0.2-0.1-0.5-0.3-0.9-0.6C172.7,255.3,172.4,255.1,172,254.9z M138,235.7
		c-1.3,1.7-2.1,4.1-2.8,6.3c-0.9,2.8-1.8,5.5-3.7,6.9c-0.1-0.2-0.3-0.3-0.6-0.4c-0.9-0.2-1.8-0.6-2.8,0c-0.6,0.3-1.4,0.9-2.1,1.8
		c-0.9,0-1.8,0-2.8-0.1c-2.4-0.1-4.8-0.2-6.9,0.4c-2.1,0.6-4,2-5.9,3.4c-1.3,0.9-2.5,1.8-3.8,2.5c-0.6-1.1-1.8-1.8-3.2-1.8
		c-1.5,0-2.8,0.9-3.3,2.1c-1.5-0.7-2.9-1.8-4.4-3c-1.9-1.5-3.9-3-6-3.7c-1.8-0.6-3.9-0.7-6-0.7c-0.4,0-0.7,0-1.1,0
		c-0.7,0-1.4,0-2.1,0c-0.6-0.6-1.2-1-1.7-1.2c-1-0.6-1.9-0.1-2.8,0.1c-0.2,0.1-0.4,0.2-0.5,0.3c-0.3-0.1-0.6-0.3-0.9-0.5
		c-2.1-1.5-2.9-4.3-3.7-7.3c-0.6-2.2-1.3-4.5-2.5-6.3c-1.3-1.8-3.3-3.2-5.2-4.5c-2.5-1.8-5-3.5-5.7-5.8c-0.7-2.3,0.3-5.1,1.4-7.9
		c0.3-0.7,0.5-1.4,0.8-2.2c0.2-0.1,0.3-0.2,0.5-0.3c2.1-1.6,2.3-4,2.3-5.2c0-1.2-0.8-1.7-1.5-2.3c-0.3-0.3-0.7-0.4-0.9-0.4
		c-0.3-0.9-0.6-1.9-0.9-2.8c-1-2.8-2-5.7-1.1-8.2c0.4-1.3,1.4-2.4,2.5-3.3c0.7-0.1,1.3-0.4,1.9-0.8c0.4-0.3,0.7-0.7,0.9-1.2
		c0.2-0.2,0.5-0.3,0.7-0.5c1.9-1.3,3.9-2.5,5.2-4.2c1.3-1.7,2.1-4.1,2.8-6.3c0.9-2.9,1.8-5.7,3.9-7.1c0.1-0.1,0.2-0.1,0.3-0.2
		c0.4,0.3,0.9,0.5,1.3,0.7c2.5,1,4.7-0.1,5.7-0.7c0.5-0.3,0.7-0.6,0.9-1c2.4,0.1,4.8,0.2,6.9-0.4c2.1-0.6,4-2,5.9-3.4
		c0.9-0.6,1.7-1.3,2.6-1.8c0.3,1.7,1.8,3,3.6,3c2,0,3.7-1.6,3.7-3.6c0-0.2,0-0.4-0.1-0.6c1.6,0.7,3.2,1.9,4.8,3.2
		c1.9,1.5,3.9,3,6,3.7c1.9,0.6,4,0.7,6.1,0.7c0.2,0.2,0.4,0.4,0.7,0.5c1,0.6,3.3,1.6,5.7,0.5c0.3-0.1,0.6-0.3,0.9-0.5
		c0.6,0.2,1.1,0.5,1.6,0.8c2.1,1.5,2.9,4.3,3.7,7.3c0.6,2.2,1.3,4.5,2.5,6.3c1.3,1.8,3.3,3.2,5.2,4.5c2.5,1.8,5,3.5,5.7,5.8
		c0.7,2.3-0.3,5.1-1.4,7.9c-0.3,0.7-0.5,1.4-0.7,2l-0.1,0c0,0-0.7-0.3-1.3,0.3c-0.6,0.6-1.4,1.2-1.4,2.4c0,1.1,0.2,3.4,2.2,4.9
		c0.3,1.2,0.7,2.3,1.1,3.5c1,2.8,2,5.7,1.1,8.2c-0.7,2-2.6,3.5-4.6,4.9c-0.6,0.1-1.3,0.4-1.8,0.8c-0.3,0.3-0.5,0.5-0.7,0.9
		C140.6,233.2,139.1,234.3,138,235.7z"/>
	<path class="st2" d="M115.2,23.4c0.4,0,0.9,0.3,1.1,0.6l2.8,4.8c0.2,0.4,0.2,0.9,0,1.3l-2.8,4.8c-0.2,0.4-0.7,0.6-1.1,0.6l-5.5,0
		c-0.4,0-0.9-0.3-1.1-0.6l-2.8-4.8c-0.2-0.4-0.2-0.9,0-1.3l2.8-4.8c0.2-0.4,0.7-0.6,1.1-0.6L115.2,23.4z M112.2,59.7
		c-0.2,0-0.5,0.1-0.6,0.3l-1.6,2.7c-0.1,0.2-0.1,0.5,0,0.6l1.6,2.7c0.1,0.2,0.4,0.3,0.6,0.3l3.2,0c0.2,0,0.5-0.1,0.6-0.3l1.6-2.7
		c0.1-0.2,0.1-0.5,0-0.6l-1.6-2.7c-0.1-0.2-0.4-0.3-0.6-0.3L112.2,59.7z M135.4,36.9c0-1-0.5-1.3-1.4-1.3l-12,0
		c-0.5,0-1.1,0.4-1.4,0.8l-2.8,4.8l0,0l-3.3,5.7c-0.3,0.4-0.3,1.2,0,1.6l3.5,6.1l0-6.9c0-0.7,0.6-1.3,1.3-1.3c0,0,14.6,0,14.7,0
		c0.7,0,1.3-0.6,1.3-1.3C135.4,45.1,135.4,37.6,135.4,36.9z M120.7,58.4c0,1,0.5,1.3,1.4,1.3l12,0c0.5,0,1.1-0.4,1.4-0.8l2.8-4.8v0
		l3.3-5.7c0.3-0.4,0.3-1.2,0-1.6l-3.5-6.1l0,6.9c0,0.7-0.6,1.3-1.3,1.3c0,0-14.6,0-14.7,0c-0.7,0-1.3,0.6-1.3,1.3
		C120.7,50.2,120.7,57.7,120.7,58.4z M152,40.1l0,15.1l3.4,0l0-15.1L152,40.1z M157.5,49.2l4.2,5.9l4.2,0l-5.7-7.7l5.3-7.4l-4.1,0
		l-3.9,5.7L157.5,49.2z M174.5,42.5l3.6,12.7l3.4,0L177,40.1l-5.8,0l-4.5,15.1l3.5,0l3.6-12.7L174.5,42.5z M194.4,43.1l0-3l-11.7,0
		l0,2.8l7.7,0l-8.1,9.2l0,3l12.2,0l0-2.8l-8.2,0L194.4,43.1z M209.2,45.4l0,4.5c0,4.5-2.7,5.4-6.9,5.4c-4.3,0-6.9-0.9-6.9-5.4l0-4.5
		c0-4.5,2.7-5.4,6.9-5.4C206.5,40,209.2,40.9,209.2,45.4z M205.8,45.8c0-2.8-1.1-3.2-3.6-3.2c-2.4,0-3.5,0.3-3.6,3.2l0,3.8
		c0.1,2.9,1.2,3.2,3.6,3.2c2.4,0,3.6-0.3,3.6-3.2L205.8,45.8z M224.3,45.4l0,4.5c0,4.5-2.7,5.4-6.9,5.4c-4.3,0-6.9-0.9-6.9-5.4
		l0-4.5c0-4.5,2.7-5.4,6.9-5.4C221.7,40,224.3,40.9,224.3,45.4z M221,45.8c0-2.8-1.1-3.2-3.6-3.2c-2.4,0-3.5,0.3-3.6,3.2l0,3.8
		c0.1,2.9,1.2,3.2,3.6,3.2c2.4,0,3.6-0.3,3.6-3.2L221,45.8z M233.5,51.5c0,1.5-0.2,1.8-1.9,1.8c-1.8,0-1.8-0.7-1.8-2.8
		c0-2.2,0-2.9,1.8-2.9c1.5,0,1.9,0.2,1.9,1.6l2.1,0c0-2.7-1.4-3.1-3.9-3.1c-3.4,0-3.9,1.4-3.9,4.4c0,3.5,0.7,4.4,3.9,4.4
		c2.9,0,3.9-0.6,3.9-3.4L233.5,51.5z M240.9,46c-3.6,0-4.1,1.1-4.1,4.4c0,3.4,0.5,4.4,4.1,4.4c3.6,0,4.1-1.1,4.1-4.4
		C245,47.1,244.5,46,240.9,46z M240.9,47.6c1.9,0,2,0.5,2,2.9c0,2.3-0.1,2.8-2,2.8c-1.9,0-2-0.5-2-2.8
		C238.9,48.1,239,47.6,240.9,47.6z M246.5,46.1l0,8.7l2.1,0l0-4.8c0-1.6,0.2-2.4,2.1-2.4c1.3,0,1.6,0.4,1.6,1.7l0,5.5l2.1,0l0-5.7
		c0-2.1-0.7-3.1-3-3.1c-1.2,0-2.3,0.1-2.7,1.4l-0.1,0l0-1.3L246.5,46.1z"/>
	<g>
		<path class="st3" d="M383.8,307.9l22.3,38.6l-22.3,38.6h-44.6l-22.3-38.6l22.3-38.6H383.8 M385,305.8h-47l-23.5,40.7l23.5,40.7h47
			l23.5-40.7L385,305.8L385,305.8z"/>
	</g>
	<g>
		<path class="st3" d="M383.8,393.4l22.3,38.6l-22.3,38.6h-44.6L316.9,432l22.3-38.6H383.8 M385,391.3h-47L314.5,432l23.5,40.7h47
			l23.5-40.7L385,391.3L385,391.3z"/>
	</g>
	<g>
		<path class="st3" d="M309.7,436.6l22.3,38.6l-22.3,38.6h-44.6l-22.3-38.6l22.3-38.6H309.7 M310.9,434.5h-47l-23.5,40.7l23.5,40.7
			h47l23.5-40.7L310.9,434.5L310.9,434.5z"/>
	</g>
	<g>
		<path class="st3" d="M383.8,479.5l22.3,38.6l-22.3,38.6h-44.6l-22.3-38.6l22.3-38.6H383.8 M385,477.4h-47l-23.5,40.7l23.5,40.7h47
			l23.5-40.7L385,477.4L385,477.4z"/>
	</g>
	<g>
		<path class="st3" d="M235.6,393.7l22.3,38.6L235.6,471h-44.6l-22.3-38.6l22.3-38.6H235.6 M236.8,391.6h-47l-23.5,40.7l23.5,40.7
			h47l23.5-40.7L236.8,391.6L236.8,391.6z"/>
	</g>
	<g>
		<path class="st3" d="M309.7,350.8l22.3,38.6l-22.3,38.6h-44.6l-22.3-38.6l22.3-38.6H309.7 M310.9,348.8h-47l-23.5,40.7l23.5,40.7
			h47l23.5-40.7L310.9,348.8L310.9,348.8z"/>
	</g>
	<g>
		<path class="st3" d="M235.6,479.5l22.3,38.6l-22.3,38.6h-44.6l-22.3-38.6l22.3-38.6H235.6 M236.8,477.4h-47l-23.5,40.7l23.5,40.7
			h47l23.5-40.7L236.8,477.4L236.8,477.4z"/>
	</g>
	<g>
		<path class="st3" d="M161.7,436.6l22.3,38.6l-22.3,38.6H117l-22.3-38.6l22.3-38.6H161.7 M162.8,434.5h-47l-23.5,40.7l23.5,40.7h47
			l23.5-40.7L162.8,434.5L162.8,434.5z"/>
	</g>
	<g>
		<path class="st3" d="M383.8,220.7l22.3,38.6L383.8,298h-44.6l-22.3-38.6l22.3-38.6H383.8 M385,218.6h-47l-23.5,40.7L338,300h47
			l23.5-40.7L385,218.6L385,218.6z"/>
	</g>
	<g>
		<path class="st3" d="M235.6,306.5l22.3,38.6l-22.3,38.6h-44.6l-22.3-38.6l22.3-38.6H235.6 M236.8,304.4h-47l-23.5,40.7l23.5,40.7
			h47l23.5-40.7L236.8,304.4L236.8,304.4z"/>
	</g>
	<g>
		<path class="st3" d="M309.7,263.6l22.3,38.6l-22.3,38.6h-44.6l-22.3-38.6l22.3-38.6H309.7 M310.9,261.5h-47l-23.5,40.7l23.5,40.7
			h47l23.5-40.7L310.9,261.5L310.9,261.5z"/>
	</g>
	<g>
		<path class="st3" d="M161.7,349.4L184,388l-22.3,38.6H117L94.7,388l22.3-38.6H161.7 M162.8,347.3h-47L92.3,388l23.5,40.7h47
			l23.5-40.7L162.8,347.3L162.8,347.3z"/>
	</g>
	<line class="st4" x1="33.4" y1="93.2" x2="331.1" y2="93.2"/>
	<text transform="matrix(1 0 0 1 131.7703 87.3232)" class="st5 st6 st7">AFTER PARTY</text>
	<text transform="matrix(1 0 0 1 199.8538 172.48)" class="st2 st6 st8">PB Ale House</text>
	<text transform="matrix(1 0 0 1 199.8537 195.8194)"><tspan x="0" y="0" class="st5 st9 st10">Wednesday 7PM-10PM</tspan><tspan x="0" y="16" class="st5 st9 st10">721 Grand Ave.</tspan><tspan x="0" y="32" class="st5 st9 st10">San Diego, CA</tspan><tspan x="0" y="48" class="st5 st9 st10">92109</tspan></text>
	<g id="U5BDky_1_">
		
			<image style="overflow:visible;" width="1201" height="1201" id="U5BDky_2_" xlink:href="9EB15F327E2A72D5.png"  transform="matrix(0.1077 0 0 0.1077 38.859 145.6688)">
		</image>
	</g>
	<linearGradient id="SVGID_2_" gradientUnits="userSpaceOnUse" x1="133.3552" y1="429.0101" x2="392.571" y2="279.3518">
		<stop  offset="0" style="stop-color:#303185"/>
		<stop  offset="1" style="stop-color:#E82256"/>
	</linearGradient>
	<path class="st11" d="M342,380.4h19.5v-67.7H342l-19.5,33.8L342,380.4z M252.3,345.1l-19.5-33.8h-39.1l-19.5,33.8l19.5,33.8h39.1
		L252.3,345.1z M326.5,302.3l-19.5-33.8h-39.1l-19.5,33.8l19.5,33.8h39.1L326.5,302.3z M361.5,225.5H342l-19.5,33.8l19.5,33.8h19.5
		V225.5z M253.6,380.4l14.3-24.7h39.1l14.3,24.7H253.6z M105.3,380.4l15.1-26.2h39.1l15.1,26.2H105.3z"/>
	<text transform="matrix(1 0 0 1 71.0924 318.8475)" class="st2 st9 st12">#KAZOOcon</text>
	<g>
		<text transform="matrix(1 0 0 1 100.3115 112.3687)" class="st5 st9 st7">Sponsored by:</text>
		<g>
			<path class="st5" d="M231.4,108.6c0,2.8-2.2,5.1-5,5.1c-2.7,0-5-2.3-5-5.1c0-2.8,2.2-5,5-5C229.1,103.6,231.4,105.8,231.4,108.6
				 M223.1,108.6c0,1.9,1.5,3.4,3.2,3.4c1.8,0,3.2-1.5,3.2-3.4c0-1.8-1.5-3.3-3.2-3.3C224.6,105.3,223.1,106.8,223.1,108.6"/>
			<path class="st5" d="M214.1,111.8c-2.5,0-4.6-2-4.6-4.6c0-2.6,2-4.7,4.5-4.7c2.6,0,4.6,2,4.6,4.7
				C218.6,109.8,216.6,111.8,214.1,111.8 M214,100.6c-3.6,0-6.5,2.9-6.5,6.6c0,3.6,2.9,6.6,6.5,6.6c3.6,0,6.5-3,6.5-6.6
				C220.5,103.5,217.7,100.6,214,100.6"/>
			<path class="st5" d="M258.7,102.3c-0.4,0-0.7,0.3-0.7,0.7c0,0.4,0.3,0.7,0.7,0.7c0.4,0,0.7-0.3,0.7-0.7
				C259.3,102.6,259,102.3,258.7,102.3 M258.7,103.6c-0.3,0-0.6-0.3-0.6-0.6c0-0.3,0.3-0.6,0.6-0.6s0.6,0.3,0.6,0.6
				C259.3,103.3,259,103.6,258.7,103.6 M258.5,103v-0.4h0.2c0.1,0,0.2,0.1,0.2,0.2c0,0.1-0.1,0.2-0.2,0.2H258.5z M258.7,102.6h-0.3
				v0.7h0.1V103h0.2l0.3,0.3h0.1l-0.3-0.3h0c0.1,0,0.2-0.1,0.2-0.2S258.8,102.6,258.7,102.6"/>
			<path class="st5" d="M242.6,103.6c-1.4,0-2.5,0.6-3.1,1.7c0,0,0,0,0,0s0,0,0,0c-0.3-0.9-1.6-1.7-2.8-1.7c-0.6,0-1.2,0.1-1.7,0.4
				c-0.5,0.3-0.9,0.8-1.1,1.3c0,0-0.1,0-0.1,0l0.1-0.3c0-0.2,0.1-0.4,0.1-0.7v-0.4c0,0,0,0,0,0h-1.6c0,0,0,0,0,0v9.6
				c0,0,0,0.1,0.1,0.1h1.8c0,0,0,0,0,0v-5.9c0-1.2,1-2.3,2.2-2.2c1.2,0,2.2,1.1,2.2,2.3l0-0.1v6c0,0,0,0,0,0h1.7c0,0,0,0,0,0v-5.9
				c0-1.2,1-2.3,2.2-2.2c1.2,0,2.2,1.1,2.2,2.3l0-0.1v6c0,0,0,0,0,0h1.6c0,0,0.1,0,0.1-0.1v-5.8
				C246.3,105.1,244.9,103.6,242.6,103.6z"/>
			<path class="st5" d="M257.1,103.8h-1.5c0,0,0,0,0,0v0.2v0c0,0.2,0,0.5,0,0.7l0.1,0.4c0,0,0,0-0.1,0c-0.7-1.1-2.2-1.7-3.4-1.7
				c-2.7,0-5,2.2-5,5c0,0,0,0,0,0.1c0,0,0,0,0,0.1c0,2.8,2.2,5,5,5c1.2,0,2.7-0.6,3.4-1.7c0,0,0.1,0,0.1,0l-0.1,0.4
				c0,0.2,0,0.5,0,0.7v0v0.2c0,0,0,0,0,0h1.5c0,0,0,0,0,0L257.1,103.8C257.1,103.9,257.1,103.8,257.1,103.8z M255.4,108.7
				c0,1.8-1.5,3.3-3.2,3.3c-1.8,0-3.2-1.5-3.2-3.3c0,0,0,0,0,0c0,0,0,0,0,0c0-1.8,1.4-3.3,3.2-3.3
				C254,105.3,255.4,106.8,255.4,108.7C255.4,108.7,255.4,108.7,255.4,108.7C255.4,108.7,255.4,108.7,255.4,108.7z"/>
		</g>
	</g>
</g>
</svg>
