<?xml version="1.0" encoding="utf-8"?>
<!-- Generator: Adobe Illustrator 21.1.0, SVG Export Plug-In . SVG Version: 6.00 Build 0)  -->
<svg version="1.1" id="Layer_1" xmlns="http://www.w3.org/2000/svg" xmlns:xlink="http://www.w3.org/1999/xlink" x="0px" y="0px"
	 viewBox="0 0 122 145" style="enable-background:new 0 0 122 145;" xml:space="preserve">
<style type="text/css">
	.st0{fill:#3500D4;}
</style>
<g>
	<path class="st0" d="M13.5,0c-1.4,0-3.1,1-3.8,2.2l-9.3,16c-0.7,1.2-0.7,3.1,0,4.3l9.3,16c0.7,1.2,2.4,2.2,3.8,2.2H32
		c1.4,0,3.1-1,3.8-2.2l9.3-16c0.7-1.2,0.7-3.1,0-4.3l-9.3-16C35.1,1,33.4,0,32.1,0H13.5z"/>
	<path class="st0" d="M22,122.3c-0.7,0-1.5,0.5-1.9,1.1l-5.3,9.2c-0.3,0.6-0.3,1.6,0,2.2l5.3,9.2c0.3,0.6,1.2,1.1,1.9,1.1h10.7
		c0.7,0,1.5-0.5,1.9-1.1l5.3-9.2c0.3-0.6,0.3-1.6,0-2.2l-5.3-9.2c-0.3-0.6-1.2-1.1-1.9-1.1C32.7,122.3,22,122.3,22,122.3z"/>
	<path class="st0" d="M100.1,73.1c0,2.5-2,4.5-4.5,4.5c-0.1,0-49.3,0-49.3,0c-2.4,0-4.5,2-4.5,4.4v23.2L29.9,84.6
		c-0.8-1.5-0.8-3.9,0-5.3L41.1,60l0,0l9.4-16.3c0.8-1.5,2.9-2.7,4.6-2.7h40.4c2.8,0,4.6,1.3,4.6,4.5C100.1,47.8,100.1,73,100.1,73.1
		z"/>
	<path class="st0" d="M50.6,90.2c0-2.5,2-4.5,4.5-4.5c0.1,0,49.3,0,49.3,0c2.4,0,4.5-2,4.5-4.4V58.1l11.9,20.6
		c0.8,1.5,0.8,3.9,0,5.3l-11.1,19.3l0,0l-9.4,16.3c-0.8,1.5-2.9,2.7-4.6,2.7H55.2c-2.8,0-4.6-1.3-4.6-4.5
		C50.6,115.5,50.6,90.3,50.6,90.2z"/>
</g>
</svg>
