<?xml version="1.0" encoding="utf-8"?>
<!-- Generator: Adobe Illustrator 19.2.1, SVG Export Plug-In . SVG Version: 6.00 Build 0)  -->
<svg version="1.1" xmlns="http://www.w3.org/2000/svg" xmlns:xlink="http://www.w3.org/1999/xlink" x="0px" y="0px"
	 viewBox="0 0 500 145.1" style="enable-background:new 0 0 500 145.1;" xml:space="preserve">
<style type="text/css">
	.st0{fill:#1D65A9;}
	.st1{fill:#1789D4;}
</style>
<g id="BG">
</g>
<g id="Layer_1">
	<path class="st0" d="M13.5,0c-1.4,0-3.1,1-3.8,2.2l-9.3,16c-0.7,1.2-0.7,3.1,0,4.3l9.3,16c0.7,1.2,2.4,2.2,3.8,2.2H32
		c1.4,0,3.1-1,3.8-2.2l9.3-16c0.7-1.2,0.7-3.1,0-4.3l-9.3-16C35.1,1,33.4,0,32,0H13.5z"/>
	<path class="st1" d="M22,122.3c-0.7,0-1.5,0.5-1.9,1.1l-5.3,9.2c-0.3,0.6-0.3,1.6,0,2.2l5.3,9.2c0.3,0.6,1.2,1.1,1.9,1.1h10.7
		c0.7,0,1.5-0.5,1.9-1.1l5.3-9.2c0.3-0.6,0.3-1.6,0-2.2l-5.3-9.2c-0.3-0.6-1.2-1.1-1.9-1.1H22z"/>
	<path class="st1" d="M100.1,73.1c0,2.5-2,4.5-4.5,4.5c-0.1,0-49.3,0-49.3,0c-2.4,0-4.5,2-4.5,4.4v23.2L29.9,84.6
		c-0.8-1.5-0.8-3.9,0-5.3L41,60v0l9.4-16.3c0.8-1.5,2.9-2.7,4.6-2.7h40.4c2.8,0,4.6,1.3,4.6,4.5C100.1,47.8,100.1,73,100.1,73.1z"/>
	<path class="st0" d="M50.5,90.2c0-2.5,2-4.5,4.5-4.5c0.1,0,49.3,0,49.3,0c2.4,0,4.5-2,4.5-4.4V58.1l11.9,20.6
		c0.8,1.5,0.8,3.9,0,5.3l-11.1,19.3v0l-9.4,16.3c-0.8,1.5-2.9,2.7-4.6,2.7H55.2c-2.8,0-4.6-1.3-4.6-4.5
		C50.5,115.5,50.5,90.3,50.5,90.2z"/>
	<g>
		<g>
			<rect x="162" y="56.4" class="st1" width="11.4" height="50.6"/>
			<polygon class="st1" points="180.6,87 194.8,107 208.9,107 189.6,81.2 207.4,56.4 193.7,56.4 180.6,75.5 			"/>
		</g>
		<polygon class="st1" points="237.6,64.2 249.8,107 261.4,107 246,56.4 226.4,56.4 211.2,107 223.1,107 235.3,64.2 		"/>
		<polygon class="st1" points="304.8,66.4 304.8,56.4 265.5,56.4 265.5,65.9 291.3,65.9 263.9,96.9 263.9,107 304.8,107 304.8,97.4 
			277.1,97.4 		"/>
		<path class="st1" d="M331,55.9c-14.4,0-23.3,3-23.3,18.2v15.1c0,15.1,8.9,18.2,23.3,18.2c14.4,0,23.3-3,23.3-18.2V74.1
			C354.3,59,345.4,55.9,331,55.9z M343,88c0,9.7-3.9,10.7-12.1,10.7c-8,0-11.8-1.1-12.1-10.7V75.3c0.3-9.6,4.1-10.6,12.1-10.6
			c8.2,0,12.1,1.1,12.1,10.6V88z"/>
		<path class="st1" d="M381.9,55.9c-14.4,0-23.3,3-23.3,18.2v15.1c0,15.1,8.9,18.2,23.3,18.2c14.4,0,23.3-3,23.3-18.2V74.1
			C405.2,59,396.3,55.9,381.9,55.9z M394,88c0,9.7-3.9,10.7-12.1,10.7c-8,0-11.8-1.1-12.1-10.7V75.3c0.3-9.6,4.1-10.6,12.1-10.6
			c8.2,0,12.1,1.1,12.1,10.6V88z"/>
	</g>
	<g>
		<path class="st0" d="M437,94.5c0,9.6-3.4,11.4-13.3,11.4c-10.7,0-13.1-3.1-13.1-14.9c0-10.2,1.6-14.9,13.1-14.9
			c8.7,0,13.3,1.3,13.3,10.6h-7c0-4.4-1.4-5.2-6.3-5.2c-6,0-6.1,2.1-6.1,9.6c0,7.3-0.1,9.6,6.1,9.6c5.7,0,6.3-1,6.3-6.1H437z"/>
		<path class="st0" d="M468.4,91c0,11.3-1.6,14.9-13.7,14.9c-12.2,0-13.7-3.6-13.7-14.9c0-11.3,1.6-14.9,13.7-14.9
			C466.8,76.1,468.4,79.7,468.4,91z M447.9,91.1c0,7.8,0.5,9.5,6.7,9.5c6.2,0,6.7-1.7,6.7-9.5c0-7.9-0.5-9.7-6.7-9.7
			C448.4,81.4,447.9,83.2,447.9,91.1z"/>
		<path class="st0" d="M480.5,76.4v4.4h0.2c1.6-4.3,5.1-4.7,9.2-4.7c7.7,0,10,3.2,10,10.3v19.2h-7V87.1c0-4.2-0.9-5.7-5.4-5.7
			c-6.1,0-6.9,2.9-6.9,8.1v16.1h-7V76.4H480.5z"/>
	</g>
</g>
</svg>
