<?xml version="1.0" encoding="utf-8"?>
<!-- Generator: Adobe Illustrator 19.2.1, SVG Export Plug-In . SVG Version: 6.00 Build 0)  -->
<svg version="1.1" id="Layer_1" xmlns="http://www.w3.org/2000/svg" xmlns:xlink="http://www.w3.org/1999/xlink" x="0px" y="0px"
	 viewBox="0 0 338 53" style="enable-background:new 0 0 338 53;" xml:space="preserve">
<style type="text/css">
	.st0{fill:#1789D4;}
	.st1{fill:#1D65A9;}
</style>
<g>
	<g>
		<g>
			<rect y="1.4" class="st0" width="11.4" height="50.2"/>
			<polygon class="st0" points="18.6,31.8 32.8,51.6 46.9,51.6 27.6,26 45.4,1.4 31.7,1.4 18.6,20.4 			"/>
		</g>
		<polygon class="st0" points="75.6,9.2 87.8,51.6 99.4,51.6 84,1.4 64.4,1.4 49.2,51.6 61.1,51.6 73.3,9.2 		"/>
		<polygon class="st0" points="142.8,11.3 142.8,1.4 103.6,1.4 103.6,10.9 129.3,10.9 101.9,41.6 101.9,51.6 142.8,51.6 142.8,42.1 
			115.1,42.1 		"/>
		<path class="st0" d="M169,1c-14.4,0-23.3,3-23.3,18v15c0,15,8.9,18,23.3,18c14.4,0,23.3-3,23.3-18V19C192.3,4,183.4,1,169,1z
			 M181.1,32.7c0,9.6-3.9,10.6-12.1,10.6c-8,0-11.8-1-12.1-10.6V20.2c0.3-9.5,4.1-10.5,12.1-10.5c8.2,0,12.1,1,12.1,10.5V32.7z"/>
		<path class="st0" d="M219.9,1c-14.4,0-23.3,3-23.3,18v15c0,15,8.9,18,23.3,18c14.4,0,23.3-3,23.3-18V19C243.3,4,234.3,1,219.9,1z
			 M232,32.7c0,9.6-3.9,10.6-12.1,10.6c-8,0-11.8-1-12.1-10.6V20.2c0.3-9.5,4.1-10.5,12.1-10.5c8.2,0,12.1,1,12.1,10.5V32.7z"/>
	</g>
	<g>
		<path class="st1" d="M275,39.2c0,9.5-3.4,11.3-13.3,11.3c-10.7,0-13.1-3.1-13.1-14.7c0-10.1,1.6-14.8,13.1-14.8
			c8.7,0,13.3,1.3,13.3,10.5h-7c0-4.4-1.4-5.2-6.3-5.2c-6,0-6.1,2.1-6.1,9.5c0,7.2-0.1,9.5,6.1,9.5c5.7,0,6.3-1,6.3-6.1H275z"/>
		<path class="st1" d="M306.4,35.7c0,11.2-1.6,14.7-13.7,14.7c-12.2,0-13.7-3.6-13.7-14.7c0-11.2,1.6-14.8,13.7-14.8
			C304.9,20.9,306.4,24.5,306.4,35.7z M286,35.8c0,7.7,0.5,9.4,6.7,9.4c6.2,0,6.7-1.7,6.7-9.4c0-7.8-0.5-9.6-6.7-9.6
			C286.5,26.2,286,28,286,35.8z"/>
		<path class="st1" d="M318.6,21.3v4.3h0.2c1.6-4.2,5.1-4.7,9.2-4.7c7.7,0,10,3.1,10,10.2v19h-7V31.8c0-4.2-0.9-5.6-5.4-5.6
			c-6.1,0-6.9,2.9-6.9,8v15.9h-7V21.3H318.6z"/>
	</g>
</g>
</svg>
