<?xml version="1.0" encoding="utf-8"?>
<!-- Generator: Adobe Illustrator 21.1.0, SVG Export Plug-In . SVG Version: 6.00 Build 0)  -->
<svg version="1.1" id="Layer_1" xmlns="http://www.w3.org/2000/svg" xmlns:xlink="http://www.w3.org/1999/xlink" x="0px" y="0px"
	 viewBox="0 0 24 24" style="enable-background:new 0 0 24 24;" xml:space="preserve">
<style type="text/css">
	.st0{fill:#100E22;}
</style>
<path class="st0" d="M18.4,8.1c-0.5,0.2-1,0.3-1.5,0.4c0.5-0.3,1-0.8,1.1-1.4c-0.5,0.3-1.1,0.5-1.7,0.6c-0.5-0.5-1.2-0.8-1.9-0.8
	c-1.4,0-2.6,1.2-2.6,2.6c0,0.2,0,0.4,0.1,0.6C9.7,9.9,7.8,8.9,6.5,7.3C6.3,7.7,6.2,8.1,6.2,8.6c0,0.9,0.5,1.7,1.2,2.2
	c-0.4,0-0.8-0.1-1.2-0.3c0,0,0,0,0,0c0,1.3,0.9,2.3,2.1,2.6c-0.2,0.1-0.4,0.1-0.7,0.1c-0.2,0-0.3,0-0.5,0c0.3,1,1.3,1.8,2.4,1.8
	c-0.9,0.7-2,1.1-3.2,1.1c-0.2,0-0.4,0-0.6,0c1.2,0.7,2.5,1.2,4,1.2c4.8,0,7.4-4,7.4-7.4c0-0.1,0-0.2,0-0.3C17.6,9,18,8.6,18.4,8.1z"
	/>
</svg>
